<?xml version="1.0" standalone="no"?><!DOCTYPE svg PUBLIC "-//W3C//DTD SVG 1.1//EN" "http://www.w3.org/Graphics/SVG/1.1/DTD/svg11.dtd"><svg t="1747883953727" class="icon" viewBox="0 0 1024 1024" version="1.1" xmlns="http://www.w3.org/2000/svg" p-id="20745" xmlns:xlink="http://www.w3.org/1999/xlink" width="200" height="200"><path d="M939.456 678.208c-2.176-1.344-14.656 2.176-28.032 1.6-12.032-0.384-27.2-7.04-29.824-11.008-2.624-4.032-15.552-17.408-14.656-32.512 1.344-17.344 20.032-31.104 13.824-41.408-8.896-15.488-20.032-19.968-31.104-27.072-5.376-3.072-16-3.968-27.584 3.136-5.824 3.584-9.344 16.384-15.616 20.928a43.52 43.52 0 0 1-31.104 8c-3.584-0.512-15.104 1.344-23.104-9.344-11.136-14.656-9.792-43.584-31.104-44.48-16.512-0.896-40.064 4.864-46.656 19.136-4.032 8 0.896 20.48 0.448 30.272a45.44 45.44 0 0 1-14.656 28.864c-5.44 5.76-13.44 13.312-22.72 12.032-17.536-2.304-37.952-22.784-52.224-12.928-10.688 7.104-26.688 26.24-20.928 49.856 1.792 7.552 15.168 11.52 20.928 19.52a51.456 51.456 0 0 1 8 36.032c-0.896 4.416 0.448 14.272-8.96 21.888-14.528 11.904-25.216 3.904-35.904 17.28-9.856 12.352-4.48 24.896-4.032 37.824 0.896 10.624 10.24 22.656 16 24.384 7.552 2.24 21.312-3.52 32.896-2.56 14.272 1.344 26.24 9.664 28.928 15.104 3.136 6.592 11.648 15.936 11.072 23.552 0 14.656-16.96 22.656-16.448 36.864 0.576 13.824 17.024 31.104 37.376 38.272 20.928 7.104 28.032-32 59.2-33.792 8.896-0.448 24.448 0.96 29.312 4.928 16 12.864 7.552 39.552 29.44 46.336 23.04 7.488 47.936-9.856 51.52-14.72 4.032-5.312-18.688-39.488 19.2-64.064 2.688-1.728 11.52-12.416 23.552-10.624 17.728 2.176 32.512 20.416 44.48 13.312a52.672 52.672 0 0 0 25.792-48.96c0-1.728-14.72-11.136-23.168-23.104-8-11.584-9.728-24.96-8.448-30.656 1.792-4.864 2.24-22.208 10.688-26.688 15.104-8.064 38.272-10.688 39.552-27.584 0.512-11.2 0.96-17.344-2.688-27.2-3.52-11.072-4.352-15.488-12.864-20.352h-0.384v-0.064z m-194.368 166.72a93.632 93.632 0 0 1-88.064-99.2 93.696 93.696 0 0 1 99.2-88.064 93.568 93.568 0 0 1 88.064 99.136 93.632 93.632 0 0 1-99.2 88.128z m-351.424-774.4H156.608a88.96 88.96 0 0 0-88.96 88.96v237.056c0 48.96 40 88.96 88.96 88.96h237.056c48.96 0 88.96-40 88.96-88.96V159.488a88.96 88.96 0 0 0-88.96-88.96z m42.816 326.144c0 35.136-40.896 49.024-75.584 49.024H171.008c-35.072 0-65.28-13.888-65.28-49.024l0.448-247.872c0-35.136 46.144-40 81.216-40H367.04c35.2 0 73.472 3.648 73.472 38.784v220.48l-4.032 28.608zM870.016 70.528H633.024A88.96 88.96 0 0 0 544 159.488v237.056c0 48.96 40 88.96 89.024 88.96h236.992c49.024 0 89.024-40 89.024-88.96V159.488a89.024 89.024 0 0 0-89.024-88.96z m42.88 326.144c0 35.136-40.896 49.024-75.648 49.024H647.36c-35.136 0-65.28-13.888-65.28-49.024l0.448-247.872c0-35.136 46.144-40 81.216-40h179.712c35.2 0 73.408 3.648 73.408 38.784v220.48l-3.968 28.608zM390.912 536.576H153.92a88.96 88.96 0 0 0-89.024 88.96v237.056c0 49.024 40 89.024 89.024 89.024h236.992c49.024 0 89.024-40 89.024-89.024V625.536a88.96 88.96 0 0 0-89.024-88.96z m42.88 326.144c0 35.136-40.896 49.024-75.648 49.024H168.256c-35.136 0-65.28-13.888-65.28-49.024l0.448-247.872c0-35.136 46.144-40 81.216-40h179.712c35.2 0 73.408 3.648 73.408 38.72v220.48l-3.968 28.672z" fill="#F0F0F0" p-id="20746"></path></svg>
