<?xml version="1.0" standalone="no"?><!DOCTYPE svg PUBLIC "-//W3C//DTD SVG 1.1//EN" "http://www.w3.org/Graphics/SVG/1.1/DTD/svg11.dtd"><svg t="1747883865185" class="icon" viewBox="0 0 1024 1024" version="1.1" xmlns="http://www.w3.org/2000/svg" p-id="17417" xmlns:xlink="http://www.w3.org/1999/xlink" width="200" height="200"><path d="M512 68.266667c147.968 0 268.458667 108.6464 272.930133 244.224l0.136534 7.850666 0.034133 91.613867c56.046933 10.820267 99.089067 57.480533 102.1952 114.7904l0.170667 6.587733v5.9392a34.133333 34.133333 0 0 1-68.027734 3.9936L819.2 539.272533v-5.9392c0-28.740267-23.4496-52.804267-53.828267-55.261866l-5.12-0.2048H263.748267c-31.095467 0-56.183467 22.528-58.709334 50.722133L204.8 533.333333v298.666667c0 28.740267 23.4496 52.804267 53.828267 55.261867l5.12 0.2048h496.503466c31.095467 0 56.183467-22.528 58.709334-50.722134l0.238933-4.744533v-4.096a34.133333 34.133333 0 0 1 68.027733-3.959467l0.238934 3.959467v4.096c0 66.423467-53.589333 120.149333-120.490667 123.562667l-6.724267 0.170666H263.748267c-67.720533 0-123.4944-51.6096-127.044267-117.1456L136.533333 832v-298.666667c0-60.3136 44.202667-110.1824 102.4-121.378133V320.341333C238.933333 181.111467 361.198933 68.266667 512 68.266667z m0 63.010133c-110.523733 0-200.635733 80.827733-204.663467 181.9648L307.2 320.341333V409.6h409.6V320.341333c0-104.448-91.682133-189.064533-204.8-189.064533z" fill="#F0F0F0" p-id="17418"></path><path d="M682.666667 512a34.133333 34.133333 0 0 1 33.860266 38.4c13.4144 3.413333 26.0096 8.772267 37.4784 15.837867a34.133333 34.133333 0 1 1 45.090134 45.1584c7.0656 11.400533 12.458667 23.995733 15.872 37.376a34.133333 34.133333 0 1 1 0 67.754666c-3.413333 13.4144-8.8064 26.0096-15.872 37.4784a34.133333 34.133333 0 1 1-45.1584 45.090134 134.587733 134.587733 0 0 1-37.376 15.872 34.133333 34.133333 0 1 1-67.754667 0 134.997333 134.997333 0 0 1-37.4784-15.872 34.133333 34.133333 0 1 1-45.090133-45.1584 134.587733 134.587733 0 0 1-15.872-37.376 34.133333 34.133333 0 1 1 0-67.754667c3.413333-13.4144 8.8064-26.0096 15.872-37.4784a34.133333 34.133333 0 1 1 45.1584-45.090133 134.587733 134.587733 0 0 1 37.376-15.872A34.133333 34.133333 0 0 1 682.666667 512z m0 102.4a68.266667 68.266667 0 1 0 0 136.533333 68.266667 68.266667 0 0 0 0-136.533333z m0 34.133333a34.133333 34.133333 0 1 1 0 68.266667 34.133333 34.133333 0 0 1 0-68.266667z" fill="#F0F0F0" p-id="17419"></path></svg>
