<?xml version="1.0" standalone="no"?><!DOCTYPE svg PUBLIC "-//W3C//DTD SVG 1.1//EN" "http://www.w3.org/Graphics/SVG/1.1/DTD/svg11.dtd"><svg t="1747883920826" class="icon" viewBox="0 0 1024 1024" version="1.1" xmlns="http://www.w3.org/2000/svg" p-id="19689" xmlns:xlink="http://www.w3.org/1999/xlink" width="200" height="200"><path d="M820.2 563.2c19.5 5.1 38.4 12.8 55.8 23-9.7 21-5.1 46.1 11.3 62.5 16.9 16.9 42 20.5 62.5 11.3 10.2 17.4 17.9 36.4 23 55.8-21 8.2-36.4 28.7-36.4 52.2 0 24.1 15.4 44.5 36.4 52.2-5.1 20-12.8 38.4-23 55.8-21-9.7-46.1-5.1-62.5 11.3-16.4 16.9-21 41.5-11.3 62.5-17.4 10.2-36.4 17.9-55.8 23C812 951.3 791 937 768 936.4c-24.1 0-44.5 15.4-52.2 36.4-19.5-4.6-38.4-12.3-55.8-22.5 9.7-21.5 5.1-46.1-11.3-62.5-16.9-16.4-41.5-21-62.5-11.8-10.2-17.4-17.9-35.8-23-55.3 21-8.2 36.4-28.7 36.4-52.7 0-23.6-15.4-44-36.4-52.2 5.1-19.5 12.8-38.4 23-55.3 21 9.2 46.1 4.6 62.5-11.8 16.9-16.9 20.5-42 11.3-62.5 17.4-10.2 35.8-17.9 55.8-23 7.7 21 28.2 36.4 52.2 36.4s44-15.4 52.2-36.4z m-333.8-512c58.9 0 115.7 11.3 169.5 34.3 51.7 22 98.3 53.2 138.2 93.2s71.2 86.5 93.2 138.2c22.5 53.8 34.3 110.6 34.3 169.5 0 8.6-0.2 17.1-0.7 25.6H818.3c0.6-8.5 0.9-17 0.9-25.6 0-45.1-8.7-88.6-26.1-129.5-16.9-39.4-41-75.3-71.2-106-30.7-30.2-66.6-54.3-106-71.2-41-17.4-84.5-26.1-129.5-26.1s-88.6 8.7-129.5 26.1c-39.4 16.9-75.3 41-106 71.2-30.2 30.7-54.3 66.6-71.2 106-17.4 41-26.1 84.5-26.1 129.5s8.7 88.6 26.1 129.5c16.9 39.4 41 75.3 71.2 106 30.7 30.2 66.6 54.3 106 71.2 41 17.4 84.5 26.1 129.5 26.1 8.6 0 17.1-0.3 25.6-0.9v102.6c-8.5 0.5-17 0.7-25.6 0.7-58.9 0-115.7-11.3-169.5-34.3-51.7-22-98.3-53.2-138.2-93.2s-71.2-86.5-93.2-138.2c-23-53.8-34.3-110.6-34.3-169.5s11.3-115.7 34.3-169.5c22-51.7 53.2-98.3 93.2-138.2s86.5-71.2 138.2-93.2c53.8-23 110.6-34.3 169.5-34.3z m281.4 648.6c-37.4 0-68.1 30.7-68.1 68.1 0 37.9 30.7 68.6 68.1 68.6 37.9 0 68.6-30.7 68.6-68.6 0-37.4-30.7-68.1-68.6-68.1z m-332.6-436c2.9 0 5.7 0.3 8.5 0.8 2.8 0.6 5.5 1.4 8.2 2.5 2.6 1.1 5.1 2.4 7.5 4 2.4 1.6 4.6 3.4 6.6 5.4 2 2 3.8 4.2 5.4 6.6 1.6 2.4 2.9 4.9 4 7.5 1.1 2.6 1.9 5.4 2.5 8.2 0.6 2.8 0.8 5.6 0.8 8.5v169.1l93 18.6c2.8 0.6 5.5 1.4 8.2 2.5 2.6 1.1 5.1 2.4 7.5 4 2.4 1.6 4.6 3.4 6.6 5.4 2 2 3.8 4.2 5.4 6.6 1.6 2.4 2.9 4.9 4 7.5 1.1 2.6 1.9 5.4 2.5 8.2 0.6 2.8 0.8 5.6 0.8 8.5 0 2.9-0.3 5.7-0.8 8.5-1.1 5.7-3.3 10.9-6.5 15.7-3.2 4.8-7.2 8.8-12 12-4.8 3.2-10 5.4-15.7 6.5a44.2 44.2 0 0 1-17 0l-117-23.4c-13-2.4-23.9-8.6-32.6-18.8-8.9-10.5-13.4-22.6-13.4-36.3V307.3c0-2.9 0.3-5.7 0.8-8.5 0.6-2.8 1.4-5.5 2.5-8.2 1.1-2.6 2.4-5.1 4-7.5 1.6-2.4 3.4-4.6 5.4-6.6 2-2 4.2-3.8 6.6-5.4 2.4-1.6 4.9-2.9 7.5-4 2.6-1.1 5.4-1.9 8.2-2.5 2.8-0.6 5.6-0.8 8.5-0.8z" fill="#F0F0F0" p-id="19690"></path></svg>
