<?xml version="1.0" standalone="no"?><!DOCTYPE svg PUBLIC "-//W3C//DTD SVG 1.1//EN" "http://www.w3.org/Graphics/SVG/1.1/DTD/svg11.dtd"><svg t="1747883725301" class="icon" viewBox="0 0 1024 1024" version="1.1" xmlns="http://www.w3.org/2000/svg" p-id="11782" xmlns:xlink="http://www.w3.org/1999/xlink" width="200" height="200"><path d="M420.8 582.4V444.1c0-50.9 41.3-92.2 92.2-92.2h322.8V190.4c0-50.9-41.3-92.2-92.2-92.2H190.2c-50.9 0-92.2 41.3-92.2 92.2V836c0 50.9 41.3 92.2 92.2 92.2h553.3c50.9 0 92.2-41.3 92.2-92.2V674.6H513c-50.9 0-92.2-41.3-92.2-92.2z m461.1-184.5H513c-25.5 0-46.1 20.6-46.1 46.1v138.3c0 25.5 20.6 46.1 46.1 46.1h368.9c25.5 0 46.1-20.6 46.1-46.1V444.1c0-25.5-20.6-46.2-46.1-46.2zM582.2 559.3c-25.5 0-46.1-20.6-46.1-46.1s20.6-46.1 46.1-46.1 46.1 20.6 46.1 46.1-20.7 46.1-46.1 46.1z" p-id="11783" fill="#F0F0F0"></path></svg>
