<?xml version="1.0" standalone="no"?><!DOCTYPE svg PUBLIC "-//W3C//DTD SVG 1.1//EN" "http://www.w3.org/Graphics/SVG/1.1/DTD/svg11.dtd"><svg t="1747883754675" class="icon" viewBox="0 0 1024 1024" version="1.1" xmlns="http://www.w3.org/2000/svg" p-id="13058" xmlns:xlink="http://www.w3.org/1999/xlink" width="200" height="200"><path d="M537.39008 621.36832H310.33344a29.12768 29.12768 0 0 0 0 58.24h198.5024c1.00864-3.99872 2.05312-8.02304 3.16416-12.08832 4.7104-17.28512 16.512-32.56832 25.39008-46.15168zM310.33344 543.744h310.6304a29.06624 29.06624 0 0 0 29.06112-29.11744 29.07136 29.07136 0 0 0-29.06112-29.12256h-310.6304a29.12768 29.12768 0 0 0 0 58.24zM310.33344 407.84896h310.6304a29.0816 29.0816 0 0 0 29.06112-29.12768 29.0816 29.0816 0 0 0-29.06112-29.12768h-310.6304a29.12768 29.12768 0 0 0 0 58.25536zM740.58752 170.05056c6.0416 0 6.3488 5.6832 6.49216 6.40512v341.51936c22.6048-2.24256 42.7776-0.88576 58.25024-0.91136V175.58528c-0.49152-7.9872 0-63.79008-64.7424-63.79008h-80.86016v58.25536h80.86016z" fill="#F0F0F0" p-id="13059"></path><path d="M493.12768 834.89792H192.19968c-5.9392 0-7.53664-6.30784-8.09472-9.02144V177.11616c0-5.93408 5.23264-6.94784 6.46144-7.0656h80.91136V111.7952H190.57152c-64.66048 0-64.66048 53.84192-64.66048 63.79008 0 63.79008 0.02048 653.7728 0 653.7728 0 0 0 63.79008 64.66048 63.79008h313.48224c-5.39136-16.9728-9.14432-36.49024-10.92608-58.25024z" fill="#F0F0F0" p-id="13060"></path><path d="M303.872 223.44192h323.53792c17.85856 0 32.32256-14.26944 32.32256-31.9232v-21.46816h-0.03072V111.7952h0.03072v-15.93344c0-17.60256-14.45888-31.86688-32.32256-31.86688h-48.53248L514.15552 0.2048h-97.0752L352.3584 63.99488h-48.4864c-17.89952 0-32.3584 14.26944-32.3584 31.86688v95.65696c-0.00512 17.65376 14.45888 31.9232 32.3584 31.9232z m25.89184-101.20192h46.464l17.024-16.77312 47.69792-47.02208h49.3312l47.71328 47.02208 16.99328 16.77312h46.5408v42.95168H329.76384v-42.95168z" fill="#F0F0F0" p-id="13061"></path><path d="M762.99776 548.03968c-131.43552 0-237.9776 106.55232-237.9776 237.9776 0 131.43552 106.5472 237.9776 237.9776 237.9776 131.4304 0 237.97248-106.5472 237.97248-237.9776 0.00512-131.42528-106.54208-237.9776-237.97248-237.9776z m0.00512 445.54752c-114.64192 0-207.58016-92.94336-207.58016-207.5904 0-114.64192 92.93824-207.58528 207.58016-207.58528 114.64704 0 207.5904 92.93824 207.5904 207.58528s-92.94336 207.5904-207.5904 207.5904z" fill="#F0F0F0" p-id="13062"></path><path d="M767.4624 922.74176m-22.2464 0a22.2464 22.2464 0 1 0 44.4928 0 22.2464 22.2464 0 1 0-44.4928 0Z" fill="#F0F0F0" p-id="13063"></path><path d="M767.4624 860.56448a14.4896 14.4896 0 0 0 14.4896-14.4896v-223.96416a14.4896 14.4896 0 0 0-28.9792 0v223.96416a14.48448 14.48448 0 0 0 14.4896 14.4896z" fill="#F0F0F0" p-id="13064"></path></svg>
