<?xml version="1.0" standalone="no"?><!DOCTYPE svg PUBLIC "-//W3C//DTD SVG 1.1//EN" "http://www.w3.org/Graphics/SVG/1.1/DTD/svg11.dtd"><svg t="1747884088392" class="icon" viewBox="0 0 1024 1024" version="1.1" xmlns="http://www.w3.org/2000/svg" p-id="25338" xmlns:xlink="http://www.w3.org/1999/xlink" width="200" height="200"><path d="M 575.488 931.84 c -10.24 0 -20.6848 -2.6624 -29.9008 -7.9872 a 60.2112 60.2112 0 0 1 -29.9008 -55.0912 c 0.4096 -6.7584 -2.048 -16.5888 -4.3008 -20.0704 c -1.4336 -2.048 -2.6624 -4.3008 -3.8912 -6.3488 c -1.2288 -2.2528 -2.4576 -4.5056 -3.6864 -6.5536 c -1.8432 -3.4816 -9.216 -10.6496 -15.1552 -13.7216 c -20.2752 -10.4448 -32.768 -30.72 -32.768 -53.4528 c 0 -22.9376 13.5168 -44.2368 34.2016 -54.0672 c 6.3488 -3.072 11.4688 -7.9872 14.7456 -14.5408 c 1.8432 -3.6864 3.8912 -7.168 6.144 -10.8544 c 4.096 -6.3488 5.9392 -13.7216 5.5296 -21.2992 A 59.945 59.945 0 0 1 609.28 614.4 c 6.3488 4.096 13.5168 6.144 21.0944 5.9392 c 4.096 -0.2048 8.3968 -0.2048 12.4928 0 c 7.3728 0.2048 14.336 -1.6384 20.0704 -5.5296 c 19.0464 -12.9024 44.032 -13.9264 63.8976 -2.4576 a 60.2112 60.2112 0 0 1 29.9008 55.0912 c -0.4096 6.7584 2.048 16.5888 4.3008 20.0704 c 1.4336 2.048 2.6624 4.3008 3.8912 6.3488 c 1.2288 2.2528 2.4576 4.5056 3.6864 6.5536 c 1.8432 3.4816 9.216 10.6496 15.1552 13.7216 c 20.2752 10.4448 32.768 30.72 32.768 53.4528 c 0 22.9376 -13.312 44.032 -34.2016 54.0672 c -6.3488 3.072 -11.4688 8.192 -14.7456 14.5408 c -2.048 3.8912 -4.096 7.5776 -6.5536 11.264 c -3.8912 6.144 -5.9392 13.5168 -5.5296 20.8896 c 1.024 22.528 -10.4448 43.6224 -29.9008 54.6816 c -19.456 11.264 -43.4176 10.6496 -62.2592 -1.4336 c -6.3488 -3.8912 -13.5168 -5.7344 -20.8896 -5.5296 c -4.3008 0.2048 -8.6016 0.2048 -12.9024 0 c -7.3728 -0.2048 -14.336 1.6384 -20.0704 5.5296 c -10.0352 6.7584 -22.1184 10.24 -33.9968 10.24 Z m 1.024 -286.31 a 19.0464 19.0464 0 0 0 -9.4208 2.4576 c -6.144 3.6864 -9.8304 10.4448 -9.4208 17.6128 c 0.8192 16.1792 -3.2768 31.744 -11.8784 45.4656 c -1.6384 2.4576 -3.072 5.12 -4.5056 7.7824 c -7.5776 14.336 -19.0464 25.6 -33.3824 32.5632 c -6.7584 3.2768 -11.0592 10.0352 -11.0592 17.2032 s 4.096 13.7216 10.4448 16.9984 c 11.0592 5.7344 26.0096 18.0224 32.9728 31.5392 c 0.8192 1.6384 1.6384 3.2768 2.6624 4.7104 c 0.8192 1.4336 1.8432 3.072 2.8672 4.7104 c 8.192 12.6976 11.4688 31.9488 10.8544 44.2368 c -0.4096 7.168 3.2768 13.9264 9.4208 17.6128 c 6.3488 3.6864 14.336 3.2768 20.2752 -0.8192 c 13.1072 -9.0112 28.672 -13.312 44.8512 -12.6976 c 3.072 0.2048 6.3488 0.2048 9.4208 0 c 15.7696 -0.6144 31.3344 3.4816 44.6464 12.0832 c 6.144 3.8912 13.7216 4.096 19.8656 0.6144 c 6.144 -3.4816 9.8304 -10.24 9.4208 -17.408 c -0.6144 -15.9744 3.4816 -31.3344 11.8784 -44.6464 c 1.6384 -2.6624 3.2768 -5.3248 4.7104 -8.192 c 7.5776 -14.336 19.0464 -25.6 33.3824 -32.5632 c 6.5536 -3.2768 10.8544 -10.0352 10.8544 -17.2032 s -4.096 -13.7216 -10.4448 -16.9984 c -11.0592 -5.7344 -26.0096 -18.0224 -32.9728 -31.5392 a 35.0208 35.0208 0 0 0 -2.6624 -4.7104 c -0.8192 -1.4336 -1.8432 -3.072 -2.8672 -4.7104 c -8.192 -12.6976 -11.4688 -31.9488 -10.8544 -44.2368 a 19.3126 19.3126 0 0 0 -9.4208 -17.6128 a 19.456 19.456 0 0 0 -20.48 0.8192 c -13.1072 9.0112 -28.672 13.312 -44.8512 12.6976 a 66.1504 66.1504 0 0 0 -9.0112 0 c -15.9744 0.6144 -31.744 -3.6864 -45.2608 -12.4928 a 15.5648 15.5648 0 0 0 -10.0352 -3.2768 Z" p-id="25339" fill="#F0F0F0"></path><path d="M 636.314 832.307 c -22.3232 0 -44.032 -11.4688 -56.1152 -32.3584 a 64.7578 64.7578 0 0 1 23.552 -88.2688 c 30.9248 -17.8176 70.4512 -7.168 88.2688 23.552 c 17.8176 30.9248 7.168 70.4512 -23.552 88.2688 c -10.0352 5.9392 -21.2992 8.8064 -32.1536 8.8064 Z m -0.2048 -88.2688 c -4.096 0 -8.192 1.024 -11.6736 3.072 c -5.5296 3.072 -9.4208 8.192 -11.0592 14.336 s -0.8192 12.4928 2.4576 17.8176 s 8.192 9.4208 14.336 11.0592 c 6.144 1.6384 12.4928 0.8192 17.8176 -2.4576 s 9.4208 -8.192 11.0592 -14.336 c 1.6384 -6.144 0.8192 -12.4928 -2.4576 -17.8176 s -8.192 -9.4208 -14.336 -11.0592 c -2.048 -0.2048 -4.096 -0.6144 -6.144 -0.6144 Z M 431.514 557.056 c -13.5168 0 -24.576 -11.0592 -24.576 -24.576 V 163.84 c 0 -13.5168 11.0592 -24.576 24.576 -24.576 s 24.576 11.0592 24.576 24.576 v 368.64 c 0 13.5168 -10.8544 24.576 -24.576 24.576 Z" p-id="25340" fill="#F0F0F0"></path><path d="M 432.742 961.536 h -3.4816 c -107.11 -1.8432 -197.427 -90.3168 -201.318 -197.222 c -2.6624 -71.0656 31.1296 -137.216 90.112 -177.152 c 7.9872 -5.3248 12.6976 -13.9264 12.6976 -22.7328 V 164.25 c 0 -27.8528 11.4688 -54.6816 31.744 -73.9328 c 20.48 -19.456 47.5136 -29.2864 75.5712 -27.8528 c 54.0672 2.8672 96.4608 49.3568 96.4608 105.882 v 395.878 c 0 13.5168 -11.0592 24.576 -24.576 24.576 s -24.576 -11.0592 -24.576 -24.576 V 168.55 c 0 -29.9008 -22.3232 -55.5008 -49.7664 -56.9344 c -14.5408 -0.6144 -28.4672 4.3008 -39.1168 14.336 s -16.384 23.552 -16.384 38.2976 v 399.974 c 0 25.1904 -12.9024 48.9472 -34.4064 63.488 a 155.197 155.197 0 0 0 -68.608 134.554 c 2.8672 81.3056 71.4752 148.685 152.986 149.914 c 15.9744 0.2048 31.744 -1.8432 46.8992 -6.3488 c 13.1072 -3.6864 26.624 3.6864 30.5152 16.5888 a 24.576 24.576 0 0 1 -16.5888 30.5152 c -18.8416 5.7344 -38.5024 8.6016 -58.1632 8.6016 Z" p-id="25341" fill="#F0F0F0"></path><path d="M 431.514 877.363 c -65.9456 0 -119.603 -53.6576 -119.603 -119.603 s 53.6576 -119.603 119.603 -119.603 c 13.5168 0 24.576 11.0592 24.576 24.576 s -11.0592 24.576 -24.576 24.576 a 70.4512 70.4512 0 1 0 0 140.902 c 4.3008 0 8.3968 -0.4096 12.4928 -1.024 c 13.312 -2.2528 26.2144 6.5536 28.4672 19.8656 c 2.4576 13.312 -6.5536 26.2144 -19.8656 28.4672 c -6.7584 1.2288 -13.9264 1.8432 -21.0944 1.8432 Z M 626.074 229.376 h -40.96 c -13.5168 0 -24.576 -11.0592 -24.576 -24.576 s 11.0592 -24.576 24.576 -24.576 h 40.96 c 13.5168 0 24.576 11.0592 24.576 24.576 s -10.8544 24.576 -24.576 24.576 Z M 626.074 301.056 h -40.96 c -13.5168 0 -24.576 -11.0592 -24.576 -24.576 s 11.0592 -24.576 24.576 -24.576 h 40.96 c 13.5168 0 24.576 11.0592 24.576 24.576 s -10.8544 24.576 -24.576 24.576 Z M 626.074 372.736 h -40.96 c -13.5168 0 -24.576 -11.0592 -24.576 -24.576 s 11.0592 -24.576 24.576 -24.576 h 40.96 c 13.5168 0 24.576 11.0592 24.576 24.576 s -10.8544 24.576 -24.576 24.576 Z M 626.074 444.416 h -40.96 c -13.5168 0 -24.576 -11.0592 -24.576 -24.576 s 11.0592 -24.576 24.576 -24.576 h 40.96 c 13.5168 0 24.576 11.0592 24.576 24.576 s -10.8544 24.576 -24.576 24.576 Z M 626.074 516.096 h -40.96 c -13.5168 0 -24.576 -11.0592 -24.576 -24.576 s 11.0592 -24.576 24.576 -24.576 h 40.96 c 13.5168 0 24.576 11.0592 24.576 24.576 s -10.8544 24.576 -24.576 24.576 Z" p-id="25342" fill="#F0F0F0"></path></svg>
