<?xml version="1.0" standalone="no"?><!DOCTYPE svg PUBLIC "-//W3C//DTD SVG 1.1//EN" "http://www.w3.org/Graphics/SVG/1.1/DTD/svg11.dtd"><svg t="1748416881826" class="icon" viewBox="0 0 1024 1024" version="1.1" xmlns="http://www.w3.org/2000/svg" p-id="15760" xmlns:xlink="http://www.w3.org/1999/xlink" width="200" height="200"><path d="M518.570667 1024z m-1.621334 0a467.968 467.968 0 0 1-276.309333-149.674667C165.034667 803.925333 85.162667 702.549333 85.162667 630.101333v-409.6a69.717333 69.717333 0 0 1 43.605333-64.597333L496.469333 5.205333a71.509333 71.509333 0 0 1 54.101334 0.512l352.938666 150.186667a70.144 70.144 0 0 1 42.666667 64.597333v409.6a456.96 456.96 0 0 1-149.674667 245.76A435.2 435.2 0 0 1 518.656 1024zM520.106667 62.293333L152.405333 212.992a7.936 7.936 0 0 0-5.290666 7.338667v409.173333a396.544 396.544 0 0 0 135.509333 199.594667 427.178667 427.178667 0 0 0 233.728 132.352h1.109333A384.512 384.512 0 0 0 752.725333 831.146667a419.669333 419.669333 0 0 0 131.328-202.24v-409.6a8.533333 8.533333 0 0 0-4.693333-7.338667L526.421333 62.293333a6.570667 6.570667 0 0 0-3.157333-0.512A6.4 6.4 0 0 0 520.533333 62.293333z m-42.069334 698.538667V550.229333a162.133333 162.133333 0 0 1-120.234666-120.32 162.986667 162.986667 0 0 1 120.234666-196.266666 162.645333 162.645333 0 0 1 196.266667 120.32 162.645333 162.645333 0 0 1-120.32 196.266666v50.432h63.061333a37.632 37.632 0 0 1 36.778667 38.826667 37.632 37.632 0 0 1-38.826667 36.778667h-60.928v85.333333a37.632 37.632 0 0 1-37.802666 37.802667 37.632 37.632 0 0 1-38.4-38.485334z m37.290667-455.936a87.296 87.296 0 0 0-86.698667 87.722667 86.869333 86.869333 0 0 0 87.210667 86.698666h0.512a86.954667 86.954667 0 0 0 86.698667-87.722666A86.954667 86.954667 0 0 0 516.266667 304.896z" fill="#0A6FB4" p-id="15761"></path></svg>
