<?xml version="1.0" standalone="no"?><!DOCTYPE svg PUBLIC "-//W3C//DTD SVG 1.1//EN" "http://www.w3.org/Graphics/SVG/1.1/DTD/svg11.dtd"><svg t="1747392854581" class="icon" viewBox="0 0 1024 1024" version="1.1" xmlns="http://www.w3.org/2000/svg" p-id="15021" xmlns:xlink="http://www.w3.org/1999/xlink" width="200" height="200"><path d="M405.930667 132.309333L614.826667 86.613333c2.005333-0.469333 4.010667-0.768 6.016-1.152 12.117333-1.813333 21.077333 8.490667 17.557333 20.224a1043.2 1043.2 0 0 1-14.592 45.205334c-2.090667 6.016-1.429333 8.106667 5.056 10.389333 105.109333 36.330667 180.266667 105.770667 225.856 207.936 3.157333 7.253333 2.666667 10.496-4.949333 13.248-6.592 2.389333-12.010667 7.061333-17.173334 12.010667-17.557333 16.981333-35.093333 33.664-52.736 50.56-2.005333 1.898667-4.202667 3.712-7.061333 6.293333-5.525333-21.077333-12.394667-40.533333-22.037333-59.050667-33.28-63.530667-84.224-106.346667-151.381334-130.474666-6.293333-2.197333-8.768-1.344-10.688 5.44-4.48 16.405333-9.642667 32.618667-14.784 48.832-5.141333 16.32-20.117333 19.925333-31.573333 7.253333A104851.136 104851.136 0 0 0 396.010667 162.133333c-11.349333-12.672-6.869333-26.197333 9.92-29.824zM146.666667 613.226667c-19.925333-71.530667-39.488-143.168-59.136-214.805334-3.328-12.309333 6.293333-22.613333 18.688-19.84 17.450667 3.904 34.816 7.914667 51.882666 12.586667 6.101333 1.621333 8.490667 0.277333 10.688-5.717333 35.2-93.376 97.856-161.578667 186.56-206.016 5.717333-2.773333 8.576-2.090667 12.885334 2.666666 22.890667 25.664 46.165333 50.752 70.293333 77.162667-28.416 9.344-53.994667 21.845333-77.44 38.826667a272.874667 272.874667 0 0 0-91.093333 114.069333c-2.474667 5.717333-1.344 7.061333 4.48 8.298667 14.869333 3.050667 29.568 6.869333 44.266666 10.496 14.592 3.52 19.264 18.026667 8.96 28.992-50.368 53.696-100.906667 107.306667-151.552 160.917333-10.688 11.434667-25.28 7.616-29.482666-7.637333z m433.237333 289.856c-70.869333 11.541333-141.930667 23.168-212.885333 34.816-2.005333 0.384-4.096 0.576-6.101334 0.768-14.016 1.045333-22.314667-9.450667-17.365333-22.805334 6.293333-17.066667 12.970667-33.856 19.925333-50.752 2.090667-5.248 1.344-7.253333-3.818666-9.642666-86.037333-40.448-147.370667-105.109333-186.282667-191.914667-2.666667-6.101333-2.282667-8.298667 4.394667-9.728 7.445333-1.536 12.885333-6.677333 18.026666-12.010667 17.834667-18.794667 35.584-37.482667 53.418667-56.170666 2.005333-2.090667 3.434667-4.864 6.762667-5.909334 21.269333 80.128 68.586667 138.218667 140.970666 176.170667 6.592 3.434667 8.682667 1.813333 10.88-4.586667 4.949333-14.122667 10.496-28.032 16.021334-41.877333 5.632-14.208 19.178667-16.597333 28.714666-4.949333 46.442667 56.362667 92.992 112.938667 139.264 169.493333 11.242667 13.930667 6.101333 26.154667-11.925333 29.098667z m333.930667-239.509334c-14.784-4.586667-29.76-8.682667-44.266667-13.930666-7.061333-2.581333-9.344-0.576-12.010667 5.717333-39.104 91.861333-103.765333 158.72-194.197333 200.298667-11.733333 5.44-23.744 10.005333-35.861333 13.930666-2.005333 0.576-3.712 2.474667-5.824-0.853333-17.173333-27.285333-39.957333-49.877333-59.605334-75.072-3.242667-4.096-6.592-8.106667-10.389333-12.693333 14.4-2.581333 28.032-5.056 41.024-9.450667 76.010667-25.28 130.197333-75.264 164.437333-147.754667 2.858667-6.101333 1.045333-7.637333-4.672-9.258666a1319.509333 1319.509333 0 0 1-46.933333-14.122667c-14.698667-4.586667-18.304-18.688-7.061333-29.376 53.226667-50.944 106.538667-101.781333 160.042666-152.512 11.072-10.389333 25.472-5.824 28.906667 9.066667 16.490667 71.914667 32.917333 143.829333 49.024 215.658666 3.52 16.256-6.869333 25.130667-22.613333 20.352zM469.056 545.728h88.042667l-42.197334-125.290667z" fill="#003294" p-id="15022"></path><path d="M671.808 592.64c-3.008-12.906667 1.557333-26.666667 12.202667-36.778667 25.152-24.064 50.325333-48.106667 75.562666-72.170666l-7.104-27.029334c-5.632-21.461333-12.096-38.848-20.352-54.677333-28.394667-54.208-70.058667-92.138667-127.146666-115.562667-3.541333 12.117333-7.36 24.064-11.136 36.010667-4.736 14.997333-15.658667 25.728-29.162667 28.672-13.610667 2.944-27.392-2.069333-37.930667-13.738667l-59.434666-65.557333-22.250667 7.317333c-27.285333 8.981333-50.752 20.736-71.722667 35.904-33.045333 24.213333-58.197333 53.44-76.394666 88.96 6.229333 1.493333 12.373333 3.008 18.538666 4.544l8.256 2.048c14.208 3.434667 25.066667 13.269333 28.949334 26.261334 3.84 12.864 0.213333 26.837333-9.706667 37.418666a85377.365333 85377.365333 0 0 1-74.858667 79.616l2.453334-0.789333 5.653333 21.248c18.325333 68.992 56.682667 120.021333 117.12 155.584 3.626667-9.642667 7.338667-18.965333 11.072-28.266667 5.504-13.888 16.213333-23.082667 29.333333-25.130666a32.853333 32.853333 0 0 1 5.397334-0.426667c11.050667 0 21.632 5.312 29.632 15.061333 19.904 24.192 39.850667 48.384 59.776 72.64l19.434666-3.477333c12.906667-2.304 26.261333-4.693333 37.973334-8.64 64.661333-21.504 112.064-61.397333 144.554666-121.685333a1543.68 1543.68 0 0 1-31.338666-9.664c-14.058667-4.288-24.32-14.698667-27.370667-27.690667z m-79.168 70.698667l-21.632-64.256h-117.162667l-25.066666 64.256h-56.981334l104.32-302.656h77.546667l98.538667 302.656H592.64z" fill="#003294" p-id="15023"></path></svg>