<svg width="42" height="42" viewBox="0 0 42 42" fill="none" xmlns="http://www.w3.org/2000/svg">
<g id="Frame">
<path id="Vector" d="M27.3491 13.7195H17.3249V8.33826C17.3249 7.78045 16.9312 7.55076 16.4554 7.82967L3.64209 15.2289C3.1499 15.5078 3.1499 15.9672 3.64209 16.2461L16.4554 23.6453C16.9312 23.9242 17.3249 23.6945 17.3249 23.1367V17.7555H27.3491C31.3851 17.7555 34.6827 21.0367 34.6827 25.089C34.6827 29.1414 31.4015 32.4226 27.3491 32.4226H10.9593C9.84365 32.4226 8.94131 33.325 8.94131 34.4406C8.94131 35.5562 9.84365 36.4586 10.9593 36.4586H27.3491C33.6163 36.4586 38.7187 31.3562 38.7187 25.089C38.7187 18.8219 33.6163 13.7195 27.3491 13.7195Z" fill="#003294"/>
</g>
</svg>
