<svg viewBox="0 0 74 74" fill="none" xmlns="http://www.w3.org/2000/svg">
<path id="Union" fill-rule="evenodd" clip-rule="evenodd" d="M28.6819 30.0663H13.0418C12.4267 30.0663 12.0303 29.5814 12.4267 28.9649L19.7452 16.369C20.2988 15.6971 21.1052 15.2953 21.9732 15.2607H28.6819C29.0715 15.2538 29.4405 15.42 29.7071 15.704C29.9736 15.988 30.1103 16.369 30.083 16.7638V28.6463C30.083 29.429 29.4542 30.0663 28.6819 30.0663ZM34.0197 30.0732C33.2474 30.0732 32.6186 29.4359 32.6186 28.6532H32.6254V16.8608C32.5708 16.4383 32.7074 16.0157 32.9945 15.704C33.2815 15.3923 33.6916 15.233 34.1085 15.2607H40.1201C41.0086 15.3438 41.8287 15.8079 42.3481 16.5491L48.543 28.9649C48.9326 29.5883 48.7139 30.0732 47.9279 30.0732H34.0197ZM6.47418 28.4681C5.38858 29.949 4.26079 31.4875 3.09352 32.3314C2.42374 32.9271 2.02734 33.7791 2 34.6796V48.3463C2.04784 49.884 3.28489 53.0089 4.80215 53.0297H7.63847C7.39243 49.3308 9.20357 45.805 12.3269 43.8793C15.4571 41.9536 19.3802 41.9536 22.5035 43.8793C25.6269 45.805 27.438 49.3308 27.192 53.0297H45.406C45.4948 47.6683 49.739 43.3252 55.0289 43.1866C57.6192 43.1866 60.107 44.2326 61.9386 46.0959C63.7703 47.9592 64.7955 50.4806 64.7818 53.1128H69.1559C70.7278 53.1128 71.999 51.8244 71.999 50.2312V38.5448C72.0332 36.2797 71.1652 34.0908 69.5933 32.4838C68.0213 30.8698 65.8753 29.9693 63.6404 29.9832H56.7717C55.0437 29.9832 52.8917 26.3371 50.5415 22.3551C47.7143 17.5651 44.6003 12.2891 41.5923 12.2891H21.5604C19.2708 12.3653 17.1248 13.4528 15.6964 15.2607C14.3061 16.5875 12.9595 18.8969 11.659 21.1272C10.6579 22.8441 9.68416 24.5141 8.73882 25.653C8.0062 26.3782 7.25099 27.4084 6.47418 28.4681ZM54.9852 59.3915C58.8262 59.3915 61.9427 56.2329 61.9427 52.34C61.9632 50.4628 61.2388 48.6549 59.9266 47.3249C58.6212 46.0019 56.8374 45.2677 54.9852 45.2884C51.1442 45.2884 48.0277 48.4471 48.0277 52.34C48.0277 56.2329 51.1442 59.3915 54.9852 59.3915ZM17.1015 59.3915C20.9425 59.3915 24.0591 56.2329 24.0591 52.34C24.1001 50.4559 23.3756 48.641 22.0565 47.3111C20.7443 45.9811 18.9537 45.2538 17.1015 45.2884C13.2605 45.2884 10.144 48.4471 10.144 52.34C10.144 56.2329 13.2605 59.3915 17.1015 59.3915Z" fill="#0A6FB4"/>
</svg>
