<svg width="74" height="74" viewBox="0 0 74 74" fill="none" xmlns="http://www.w3.org/2000/svg">
<path id="Vector" d="M37.1344 39.6283C39.0272 37.271 40.7828 32.8904 37.3612 27.4486L36.6169 26.7368L64.0225 26.556C65.6007 26.5429 66.8701 27.7766 66.8571 29.3105L66.6662 52.3202L8.85478 52.4064L9.02236 28.2294L22.6966 41.4817C27.5193 45.1946 33.3725 44.3139 37.1344 39.6283ZM66.6151 58.4768C66.6024 60.0106 65.3124 61.2646 63.7343 61.2777L13.6352 61.6253C10.0569 61.6379 8.78813 60.4046 8.80071 58.8707L8.82542 55.8781L66.6375 55.7922L66.6151 58.4768ZM36.4283 8.90697L51.2116 23.1527L28.046 23.3396L33.8028 28.8346C36.3484 31.2646 36.3156 35.2381 33.7292 37.7094C31.1429 40.1806 26.9822 40.2142 24.4366 37.7842L10.6083 24.5843C10.2543 24.2467 9.95564 23.8765 9.70105 23.4871L4.76922 23.5268L4.91311 9.16048L36.4283 8.90697Z" fill="#0A6FB4"/>
</svg>
