<svg width="141" height="141" viewBox="0 0 141 141" fill="none" xmlns="http://www.w3.org/2000/svg">
<g id="Group 3562">
<path id="Vector" d="M124.499 30.3906V21.0653C124.499 17.7167 121.797 15 118.466 15H18.0328C14.7022 15 12 17.7167 12 21.0653V30.3906H124.499Z" fill="#003294"/>
<path id="Vector_2" d="M120.65 101.73L118.677 100.58C119.079 98.9497 119.28 97.2439 119.28 95.5001C119.28 93.7564 119.066 92.0505 118.677 90.4205L120.65 89.2706C121.781 88.6135 122.158 87.1604 121.517 86.0231L117.973 79.8568C117.319 78.7196 115.874 78.3405 114.743 78.9849L112.757 80.1348C110.331 77.7719 107.34 76.0028 104.009 75.0299V72.7427C104.009 71.4412 102.941 70.3672 101.647 70.3672H94.5581C93.2635 70.3672 92.1952 71.4412 92.1952 72.7427V75.0299C88.8646 76.0028 85.8733 77.7719 83.4351 80.1221L81.4493 78.9723C80.3181 78.3152 78.8728 78.7069 78.2192 79.8442L74.675 86.0105C74.0214 87.1477 74.411 88.6009 75.5422 89.2579L77.5154 90.4078C77.1132 92.0379 76.9121 93.7437 76.9121 95.4875C76.9121 97.2312 77.1258 98.9371 77.5154 100.567L75.5422 101.717C74.411 102.374 74.034 103.827 74.675 104.964L78.2192 111.131C78.8728 112.268 80.3181 112.647 81.4493 112.003L83.4351 110.853C85.8733 113.203 88.8646 114.972 92.1952 115.945V118.232C92.1952 119.534 93.2635 120.608 94.5581 120.608H101.647C102.941 120.608 104.009 119.534 104.009 118.232V115.945C107.34 114.972 110.331 113.203 112.77 110.853L114.755 112.003C115.887 112.66 117.332 112.268 117.985 111.131L121.53 104.964C122.171 103.84 121.781 102.374 120.65 101.73ZM98.6051 101.957C95.0608 101.957 92.1826 99.0635 92.1826 95.5001C92.1826 91.9368 95.0608 89.0431 98.6051 89.0431C102.149 89.0431 105.027 91.9368 105.027 95.5001C105.027 99.0635 102.162 101.957 98.6051 101.957Z" fill="#003294"/>
<path id="Vector_3" d="M72.3028 89.5323L69.8646 88.0975C68.482 87.2776 67.9919 85.4585 68.7962 84.0365L73.17 76.3116C73.9744 74.9025 75.7591 74.4028 77.1542 75.2227L79.5924 76.6575C82.5963 73.7239 86.2914 71.5076 90.4012 70.2906V67.421C90.4012 65.7812 91.7083 64.4489 93.3171 64.4489H102.065C103.673 64.4489 104.98 65.7812 104.98 67.421V70.2906C109.09 71.5076 112.785 73.7239 115.789 76.6575L118.227 75.2227C119.61 74.4028 121.407 74.8896 122.212 76.3116L124.499 80.347V39.1094H12V85.7659C12 89.1608 14.7022 91.9151 18.0328 91.9151H71.8378C71.9635 91.108 72.1143 90.3137 72.3028 89.5323ZM44.0618 69.3426C44.0618 72.7374 41.3596 75.4917 38.029 75.4917H26.0514C22.7208 75.4917 20.0186 72.7374 20.0186 69.3426V65.2688C20.0186 61.874 22.7208 59.1197 26.0514 59.1197H38.029C41.3596 59.1197 44.0618 61.874 44.0618 65.2688V69.3426Z" fill="#25A3D9"/>
</g>
</svg>
