<svg width="187" height="187" viewBox="0 0 187 187" fill="none" xmlns="http://www.w3.org/2000/svg">
<path id="Union" fill-rule="evenodd" clip-rule="evenodd" d="M150 93.5C150 124.704 124.704 150 93.5 150C62.2959 150 37 124.704 37 93.5C37 62.2959 62.2959 37 93.5 37C124.704 37 150 62.2959 150 93.5ZM141 93.5C141 119.734 119.734 141 93.5 141C67.2665 141 46 119.734 46 93.5C46 67.2665 67.2665 46 93.5 46C119.734 46 141 67.2665 141 93.5ZM81.0976 77.4228C81.0976 81.4818 77.807 84.7724 73.748 84.7724C69.6889 84.7724 66.3984 81.4818 66.3984 77.4228C66.3984 73.3637 69.6889 70.0732 73.748 70.0732C77.807 70.0732 81.0976 73.3637 81.0976 77.4228ZM88.4472 77.4228C88.4472 85.5409 81.8661 92.122 73.748 92.122C65.6298 92.122 59.0488 85.5409 59.0488 77.4228C59.0488 69.3046 65.6298 62.7236 73.748 62.7236C81.8661 62.7236 88.4472 69.3046 88.4472 77.4228ZM113.252 84.7724C117.311 84.7724 120.602 81.4818 120.602 77.4228C120.602 73.3637 117.311 70.0732 113.252 70.0732C109.193 70.0732 105.902 73.3637 105.902 77.4228C105.902 81.4818 109.193 84.7724 113.252 84.7724ZM113.252 92.122C121.37 92.122 127.951 85.5409 127.951 77.4228C127.951 69.3046 121.37 62.7236 113.252 62.7236C105.134 62.7236 98.5528 69.3046 98.5528 77.4228C98.5528 85.5409 105.134 92.122 113.252 92.122ZM100.39 119.683C100.39 123.235 97.511 126.114 93.9594 126.114C90.4077 126.114 87.5285 123.235 87.5285 119.683C87.5285 116.131 90.4077 113.252 93.9594 113.252C97.511 113.252 100.39 116.131 100.39 119.683ZM107.74 119.683C107.74 127.294 101.57 133.463 93.9594 133.463C86.3486 133.463 80.1789 127.294 80.1789 119.683C80.1789 112.072 86.3486 105.902 93.9594 105.902C101.57 105.902 107.74 112.072 107.74 119.683ZM58.5894 111.415C60.3653 111.415 61.8049 109.975 61.8049 108.199C61.8049 106.423 60.3653 104.984 58.5894 104.984C56.8136 104.984 55.374 106.423 55.374 108.199C55.374 109.975 56.8136 111.415 58.5894 111.415ZM58.5894 115.089C62.3948 115.089 65.4797 112.005 65.4797 108.199C65.4797 104.394 62.3948 101.309 58.5894 101.309C54.7841 101.309 51.6992 104.394 51.6992 108.199C51.6992 112.005 54.7841 115.089 58.5894 115.089ZM129.789 108.199C129.789 109.975 128.349 111.415 126.573 111.415C124.797 111.415 123.358 109.975 123.358 108.199C123.358 106.423 124.797 104.984 126.573 104.984C128.349 104.984 129.789 106.423 129.789 108.199ZM133.463 108.199C133.463 112.005 130.379 115.089 126.573 115.089C122.768 115.089 119.683 112.005 119.683 108.199C119.683 104.394 122.768 101.309 126.573 101.309C130.379 101.309 133.463 104.394 133.463 108.199Z" fill="#0A6FB4"/>
</svg>
