<svg width="187" height="187" viewBox="0 0 187 187" fill="none" xmlns="http://www.w3.org/2000/svg">
<path id="Union" fill-rule="evenodd" clip-rule="evenodd" d="M138.999 64.311C138.999 82.8902 128.058 98.9141 112.268 106.291H119.04C136.239 106.291 150.181 120.233 150.181 137.432C150.181 154.63 136.239 168.572 119.04 168.572H67.1402C49.9419 168.572 36 154.63 36 137.432C36 120.233 49.9419 106.291 67.1401 106.291H73.1077C57.3174 98.9141 46.3766 82.8902 46.3766 64.311C46.3766 38.7341 67.1107 18 92.6876 18C118.264 18 138.999 38.7341 138.999 64.311ZM129.075 64.313C129.075 84.4091 112.784 100.7 92.6875 100.7C72.5914 100.7 56.3003 84.4091 56.3003 64.313C56.3003 44.2169 72.5914 27.9258 92.6875 27.9258C112.784 27.9258 129.075 44.2169 129.075 64.313ZM82.8087 52.0677C82.8087 54.8336 80.5665 57.0758 77.8006 57.0758C75.0346 57.0758 72.7924 54.8336 72.7924 52.0677C72.7924 49.3017 75.0346 47.0595 77.8006 47.0595C80.5665 47.0595 82.8087 49.3017 82.8087 52.0677ZM88.7167 52.0677C88.7167 58.0965 83.8294 62.9838 77.8006 62.9838C71.7717 62.9838 66.8844 58.0965 66.8844 52.0677C66.8844 46.0388 71.7717 41.1515 77.8006 41.1515C83.8294 41.1515 88.7167 46.0388 88.7167 52.0677ZM107.573 57.0758C110.339 57.0758 112.581 54.8336 112.581 52.0677C112.581 49.3017 110.339 47.0595 107.573 47.0595C104.807 47.0595 102.564 49.3017 102.564 52.0677C102.564 54.8336 104.807 57.0758 107.573 57.0758ZM107.573 62.9838C113.601 62.9838 118.489 58.0965 118.489 52.0677C118.489 46.0388 113.601 41.1515 107.573 41.1515C101.544 41.1515 96.6564 46.0388 96.6564 52.0677C96.6564 58.0965 101.544 62.9838 107.573 62.9838ZM98.0269 84.4981C98.0269 87.2641 95.7847 89.5063 93.0188 89.5063C90.2528 89.5063 88.0106 87.2641 88.0106 84.4981C88.0106 81.7322 90.2528 79.49 93.0188 79.49C95.7847 79.49 98.0269 81.7322 98.0269 84.4981ZM103.935 84.4981C103.935 90.527 99.0476 95.4143 93.0188 95.4143C86.9899 95.4143 82.1026 90.527 82.1026 84.4981C82.1026 78.4693 86.9899 73.582 93.0188 73.582C99.0476 73.582 103.935 78.4693 103.935 84.4981ZM66.8864 77.9047C68.178 77.9047 69.2251 76.8577 69.2251 75.5661C69.2251 74.2744 68.178 73.2274 66.8864 73.2274C65.5948 73.2274 64.5477 74.2744 64.5477 75.5661C64.5477 76.8577 65.5948 77.9047 66.8864 77.9047ZM66.8864 80.8587C69.8095 80.8587 72.1791 78.4891 72.1791 75.5661C72.1791 72.643 69.8095 70.2734 66.8864 70.2734C63.9633 70.2734 61.5937 72.643 61.5937 75.5661C61.5937 78.4891 63.9633 80.8587 66.8864 80.8587ZM119.505 75.5661C119.505 76.8577 118.458 77.9047 117.166 77.9047C115.875 77.9047 114.828 76.8577 114.828 75.5661C114.828 74.2744 115.875 73.2274 117.166 73.2274C118.458 73.2274 119.505 74.2744 119.505 75.5661ZM122.459 75.5661C122.459 78.4891 120.089 80.8587 117.166 80.8587C114.243 80.8587 111.874 78.4891 111.874 75.5661C111.874 72.643 114.243 70.2734 117.166 70.2734C120.089 70.2734 122.459 72.643 122.459 75.5661ZM69.0353 111.812C55.1082 111.812 43.8181 123.102 43.8181 137.029C43.8181 150.956 55.1082 162.246 69.0353 162.246H117.142C131.069 162.246 142.359 150.956 142.359 137.029C142.359 123.102 131.069 111.812 117.142 111.812H69.0353ZM68.3396 146.727C73.6902 146.727 78.0277 142.39 78.0277 137.039C78.0277 131.689 73.6902 127.351 68.3396 127.351C62.989 127.351 58.6515 131.689 58.6515 137.039C58.6515 142.39 62.989 146.727 68.3396 146.727ZM68.3396 155.005C78.2617 155.005 86.3051 146.961 86.3051 137.039C86.3051 127.117 78.2617 119.074 68.3396 119.074C58.4176 119.074 50.3741 127.117 50.3741 137.039C50.3741 146.961 58.4176 155.005 68.3396 155.005ZM117.045 146.727C122.395 146.727 126.733 142.39 126.733 137.039C126.733 131.689 122.395 127.351 117.045 127.351C111.694 127.351 107.357 131.689 107.357 137.039C107.357 142.39 111.694 146.727 117.045 146.727ZM117.045 155.005C126.967 155.005 135.01 146.961 135.01 137.039C135.01 127.117 126.967 119.074 117.045 119.074C107.123 119.074 99.0794 127.117 99.0794 137.039C99.0794 146.961 107.123 155.005 117.045 155.005Z" fill="#0A6FB4"/>
</svg>
