<svg width="187" height="187" viewBox="0 0 187 187" fill="none" xmlns="http://www.w3.org/2000/svg">
<path id="Union" fill-rule="evenodd" clip-rule="evenodd" d="M125.029 41C129.641 41.2918 132.214 43.5596 134.444 45.5252C134.808 45.8459 135.163 46.1585 135.516 46.4532C146.182 57.1113 152.779 71.8398 152.779 88.1093C152.779 120.633 126.413 146.999 93.8896 146.999C61.3658 146.999 35 120.633 35 88.1093C35 71.8403 41.5972 57.1121 52.2623 46.4541C52.6155 46.1592 52.9705 45.8464 53.3347 45.5255L53.3349 45.5253L53.335 45.5252L53.335 45.5252C55.5654 43.5596 58.1387 41.2918 62.7502 41H125.029ZM132.367 51.7507C129.65 49.6357 124.995 46.8434 120.444 46.8434H103.546L103.55 46.8359H84.7117L84.716 46.8434H67.8176C61.6375 46.8434 55.2644 51.9934 53.8159 53.6028L53.7527 53.5784C45.6714 62.8964 40.7808 75.0566 40.7808 88.359C40.7808 117.691 64.5587 141.469 93.8903 141.469C123.222 141.469 147 117.691 147 88.359C147 74.1685 141.434 61.2778 132.367 51.7507ZM73.2607 84.5C73.2607 89.8907 68.8907 94.2607 63.5 94.2607C58.1093 94.2607 53.7393 89.8907 53.7393 84.5C53.7393 79.1093 58.1093 74.7393 63.5 74.7393C68.8907 74.7393 73.2607 79.1093 73.2607 84.5ZM77 84.5C77 91.9558 70.9558 98 63.5 98C56.0442 98 50 91.9558 50 84.5C50 77.0442 56.0442 71 63.5 71C70.9558 71 77 77.0442 77 84.5ZM94 94.2607C98.9828 94.2607 103.261 90.025 103.261 84.5C103.261 78.975 98.9828 74.7393 94 74.7393C89.0172 74.7393 84.7393 78.975 84.7393 84.5C84.7393 90.025 89.0172 94.2607 94 94.2607ZM94 98C101.18 98 107 91.9558 107 84.5C107 77.0442 101.18 71 94 71C86.8203 71 81 77.0442 81 84.5C81 91.9558 86.8203 98 94 98ZM88.2607 114.5C88.2607 119.891 83.8907 124.261 78.5 124.261C73.1093 124.261 68.7393 119.891 68.7393 114.5C68.7393 109.109 73.1093 104.739 78.5 104.739C83.8907 104.739 88.2607 109.109 88.2607 114.5ZM92 114.5C92 121.956 85.9558 128 78.5 128C71.0442 128 65 121.956 65 114.5C65 107.044 71.0442 101 78.5 101C85.9558 101 92 107.044 92 114.5ZM124 94.2607C128.983 94.2607 133.261 90.025 133.261 84.5C133.261 78.975 128.983 74.7393 124 74.7393C119.017 74.7393 114.739 78.975 114.739 84.5C114.739 90.025 119.017 94.2607 124 94.2607ZM124 98C131.18 98 137 91.9558 137 84.5C137 77.0442 131.18 71 124 71C116.82 71 111 77.0442 111 84.5C111 91.9558 116.82 98 124 98ZM117.261 114.5C117.261 120.025 112.983 124.261 108 124.261C103.017 124.261 98.7393 120.025 98.7393 114.5C98.7393 108.975 103.017 104.739 108 104.739C112.983 104.739 117.261 108.975 117.261 114.5ZM121 114.5C121 121.956 115.18 128 108 128C100.82 128 95 121.956 95 114.5C95 107.044 100.82 101 108 101C115.18 101 121 107.044 121 114.5ZM79 65.2607C80.8008 65.2607 82.2607 63.8008 82.2607 62C82.2607 60.1992 80.8008 58.7393 79 58.7393C77.1992 58.7393 75.7393 60.1992 75.7393 62C75.7393 63.8008 77.1992 65.2607 79 65.2607ZM79 69C82.866 69 86 65.866 86 62C86 58.134 82.866 55 79 55C75.134 55 72 58.134 72 62C72 65.866 75.134 69 79 69ZM111.261 62C111.261 63.8008 109.801 65.2607 108 65.2607C106.199 65.2607 104.739 63.8008 104.739 62C104.739 60.1992 106.199 58.7393 108 58.7393C109.801 58.7393 111.261 60.1992 111.261 62ZM115 62C115 65.866 111.866 69 108 69C104.134 69 101 65.866 101 62C101 58.134 104.134 55 108 55C111.866 55 115 58.134 115 62Z" fill="#0A6FB4"/>
</svg>
