<svg width="187" height="187" viewBox="0 0 187 187" fill="none" xmlns="http://www.w3.org/2000/svg">
<path id="Union" fill-rule="evenodd" clip-rule="evenodd" d="M118.153 19.0016C122.112 19.249 124.32 21.1946 126.233 22.8807L126.233 22.8809L126.233 22.881L126.234 22.8812L126.234 22.8815L126.234 22.8819C126.548 23.1582 126.854 23.4276 127.158 23.6814C136.296 32.816 141.948 45.4373 141.948 59.3789C141.948 87.2551 119.35 109.853 91.4742 109.853C63.5981 109.853 41 87.2551 41 59.3789C41 45.4365 46.6531 32.8144 55.7921 23.6797C56.0961 23.4261 56.4015 23.1569 56.7149 22.8808L56.7149 22.8808L56.7149 22.8807C58.6282 21.1946 60.836 19.249 64.7949 19.0016L64.8198 19H118.128L118.153 19.0016ZM120.196 32.0314C118.171 30.4575 114.715 28.3868 111.332 28.375H71.9766C67.3709 28.391 62.6295 32.2231 61.5502 33.4224L61.5051 33.405C55.4693 40.3633 51.8164 49.4446 51.8164 59.3791C51.8164 81.2818 69.572 99.0374 91.4747 99.0374C113.377 99.0374 131.133 81.2818 131.133 59.3791C131.133 48.777 126.973 39.1466 120.196 32.0314ZM69.1213 114C53.5904 114 41 126.59 41 142.121C41 157.652 53.5903 170.243 69.1213 170.243H115.99C131.521 170.243 144.112 157.652 144.112 142.121C144.112 126.59 131.521 114 115.99 114H69.1213ZM70.5 120C58.0736 120 48 130.074 48 142.5C48 154.926 58.0736 165 70.5 165H114.5C126.926 165 137 154.926 137 142.5C137 130.074 126.926 120 114.5 120H70.5ZM70.2024 149.967C74.479 149.967 77.9459 146.5 77.9459 142.224C77.9459 137.947 74.479 134.48 70.2024 134.48C65.9257 134.48 62.4588 137.947 62.4588 142.224C62.4588 146.5 65.9257 149.967 70.2024 149.967ZM70.2024 158.448C79.1625 158.448 86.4262 151.184 86.4262 142.224C86.4262 133.264 79.1625 126 70.2024 126C61.2422 126 53.9785 133.264 53.9785 142.224C53.9785 151.184 61.2422 158.448 70.2024 158.448ZM121.931 142.224C121.931 146.5 118.464 149.967 114.188 149.967C109.911 149.967 106.444 146.5 106.444 142.224C106.444 137.947 109.911 134.48 114.188 134.48C118.464 134.48 121.931 137.947 121.931 142.224ZM130.412 142.224C130.412 151.184 123.148 158.448 114.188 158.448C105.228 158.448 97.9639 151.184 97.9639 142.224C97.9639 133.264 105.228 126 114.188 126C123.148 126 130.412 133.264 130.412 142.224ZM73.6492 56.4917C73.6492 59.7888 70.9763 62.4617 67.6792 62.4617C64.382 62.4617 61.7092 59.7888 61.7092 56.4917C61.7092 53.1945 64.382 50.5217 67.6792 50.5217C70.9763 50.5217 73.6492 53.1945 73.6492 56.4917ZM78.4951 56.4917C78.4951 62.4651 73.6526 67.3076 67.6792 67.3076C61.7057 67.3076 56.8633 62.4651 56.8633 56.4917C56.8633 50.5182 61.7057 45.6758 67.6792 45.6758C73.6526 45.6758 78.4951 50.5182 78.4951 56.4917ZM91.4731 62.4617C94.7703 62.4617 97.4431 59.7888 97.4431 56.4917C97.4431 53.1945 94.7703 50.5217 91.4731 50.5217C88.176 50.5217 85.5031 53.1945 85.5031 56.4917C85.5031 59.7888 88.176 62.4617 91.4731 62.4617ZM91.4731 67.3076C97.4466 67.3076 102.289 62.4651 102.289 56.4917C102.289 50.5182 97.4466 45.6758 91.4731 45.6758C85.4997 45.6758 80.6572 50.5182 80.6572 56.4917C80.6572 62.4651 85.4997 67.3076 91.4731 67.3076ZM85.1853 81.0073C85.1853 84.3045 82.5125 86.9773 79.2153 86.9773C75.9182 86.9773 73.2453 84.3045 73.2453 81.0073C73.2453 77.7102 75.9182 75.0373 79.2153 75.0373C82.5125 75.0373 85.1853 77.7102 85.1853 81.0073ZM90.0312 81.0073C90.0312 86.9808 85.1888 91.8232 79.2153 91.8232C73.2419 91.8232 68.3994 86.9808 68.3994 81.0073C68.3994 75.0338 73.2419 70.1914 79.2153 70.1914C85.1888 70.1914 90.0312 75.0338 90.0312 81.0073ZM115.268 62.4617C118.565 62.4617 121.238 59.7888 121.238 56.4917C121.238 53.1945 118.565 50.5217 115.268 50.5217C111.971 50.5217 109.298 53.1945 109.298 56.4917C109.298 59.7888 111.971 62.4617 115.268 62.4617ZM115.268 67.3076C121.242 67.3076 126.084 62.4651 126.084 56.4917C126.084 50.5182 121.242 45.6758 115.268 45.6758C109.295 45.6758 104.452 50.5182 104.452 56.4917C104.452 62.4651 109.295 67.3076 115.268 67.3076ZM108.98 81.0073C108.98 84.3045 106.307 86.9773 103.01 86.9773C99.7131 86.9773 97.0402 84.3045 97.0402 81.0073C97.0402 77.7102 99.7131 75.0373 103.01 75.0373C106.307 75.0373 108.98 77.7102 108.98 81.0073ZM113.826 81.0073C113.826 86.9808 108.984 91.8232 103.01 91.8232C97.0368 91.8232 92.1943 86.9808 92.1943 81.0073C92.1943 75.0338 97.0368 70.1914 103.01 70.1914C108.984 70.1914 113.826 75.0338 113.826 81.0073ZM79.2157 41.8132C81.0634 41.8132 82.5613 40.3154 82.5613 38.4677C82.5613 36.62 81.0634 35.1222 79.2157 35.1222C77.3681 35.1222 75.8702 36.62 75.8702 38.4677C75.8702 40.3154 77.3681 41.8132 79.2157 41.8132ZM79.2157 44.2362C82.4016 44.2362 84.9842 41.6535 84.9842 38.4677C84.9842 35.2819 82.4016 32.6992 79.2157 32.6992C76.0299 32.6992 73.4473 35.2819 73.4473 38.4677C73.4473 41.6535 76.0299 44.2362 79.2157 44.2362ZM106.356 38.4677C106.356 40.3154 104.858 41.8132 103.011 41.8132C101.163 41.8132 99.6651 40.3154 99.6651 38.4677C99.6651 36.62 101.163 35.1222 103.011 35.1222C104.858 35.1222 106.356 36.62 106.356 38.4677ZM108.779 38.4677C108.779 41.6535 106.197 44.2362 103.011 44.2362C99.8248 44.2362 97.2422 41.6535 97.2422 38.4677C97.2422 35.2819 99.8248 32.6992 103.011 32.6992C106.197 32.6992 108.779 35.2819 108.779 38.4677Z" fill="#0A6FB4"/>
</svg>
