<svg width="187" height="187" viewBox="0 0 187 187" fill="none" xmlns="http://www.w3.org/2000/svg">
<path id="Union" fill-rule="evenodd" clip-rule="evenodd" d="M93.5 150C124.704 150 150 124.704 150 93.5C150 62.2959 124.704 37 93.5 37C62.2959 37 37 62.2959 37 93.5C37 124.704 62.2959 150 93.5 150ZM93.5003 137.895C118.018 137.895 137.893 118.02 137.893 93.5022C137.893 68.9847 118.018 49.1094 93.5003 49.1094C68.9828 49.1094 49.1074 68.9847 49.1074 93.5022C49.1074 118.02 68.9828 137.895 93.5003 137.895ZM112.195 103.965C117.747 103.965 122.248 99.4642 122.248 93.912C122.248 88.3598 117.747 83.8588 112.195 83.8588C106.643 83.8588 102.142 88.3598 102.142 93.912C102.142 99.4642 106.643 103.965 112.195 103.965ZM112.195 110.945C121.602 110.945 129.228 103.319 129.228 93.912C129.228 84.5049 121.602 76.8789 112.195 76.8789C102.788 76.8789 95.1621 84.5049 95.1621 93.912C95.1621 103.319 102.788 110.945 112.195 110.945ZM85.6898 93.912C85.6898 99.4642 81.1888 103.965 75.6366 103.965C70.0844 103.965 65.5834 99.4642 65.5834 93.912C65.5834 88.3598 70.0844 83.8588 75.6366 83.8588C81.1888 83.8588 85.6898 88.3598 85.6898 93.912ZM92.6697 93.912C92.6697 103.319 85.0437 110.945 75.6366 110.945C66.2295 110.945 58.6035 103.319 58.6035 93.912C58.6035 84.5049 66.2295 76.8789 75.6366 76.8789C85.0437 76.8789 92.6697 84.5049 92.6697 93.912ZM100.083 63.9036C99.6597 63.4801 98.973 63.4801 98.5495 63.9036L93.9153 68.5378L89.35 63.9725C88.8904 63.5129 88.1452 63.5129 87.6855 63.9725C87.2259 64.4321 87.2259 65.1773 87.6855 65.6369L92.2508 70.2022L87.7453 74.7078C87.3217 75.1313 87.3217 75.818 87.7453 76.2416C88.1688 76.6651 88.8555 76.6651 89.279 76.2416L93.7846 71.736L98.3591 76.3105C98.8187 76.7701 99.5639 76.7701 100.024 76.3105C100.483 75.8508 100.483 75.1056 100.024 74.646L95.449 70.0715L100.083 65.4373C100.507 65.0138 100.507 64.3271 100.083 63.9036ZM98.5495 111.263C98.973 110.839 99.6597 110.839 100.083 111.263C100.507 111.686 100.507 112.373 100.083 112.797L95.449 117.431L100.024 122.005C100.483 122.465 100.483 123.21 100.024 123.67C99.5639 124.129 98.8187 124.129 98.3591 123.67L93.7846 119.095L89.279 123.601C88.8555 124.024 88.1688 124.024 87.7453 123.601C87.3217 123.177 87.3217 122.491 87.7453 122.067L92.2508 117.562L87.6855 112.996C87.2259 112.537 87.2259 111.791 87.6855 111.332C88.1452 110.872 88.8904 110.872 89.35 111.332L93.9153 115.897L98.5495 111.263Z" fill="#0A6FB4"/>
</svg>
