<?xml version="1.0" standalone="no"?><!DOCTYPE svg PUBLIC "-//W3C//DTD SVG 1.1//EN" "http://www.w3.org/Graphics/SVG/1.1/DTD/svg11.dtd"><svg t="1747226903101" class="icon" viewBox="0 0 1600 1024" version="1.1" xmlns="http://www.w3.org/2000/svg" p-id="7355" xmlns:xlink="http://www.w3.org/1999/xlink" width="312.5" height="200"><path d="M1541.576 614.392h-66.056a18.288 18.288 0 0 0-8.592 2.32l-29.776-89.504c-9.496-50.88-45.424-75.464-89.512-75.464H1067.944c-50.664 0-81.392 32.952-89.544 75.416l-29.84 89.784a18.2 18.2 0 0 0-9.136-2.576h-66.032a18.336 18.336 0 0 0-18.392 18.32v15.936a18.4 18.4 0 0 0 18.392 18.368l24.992 4.264a114.88 114.88 0 0 0-12.384 53.528l-9.248 105.592c0 3.064 0.208 6.168 0.6 9.32a34.192 34.192 0 0 0-0.6 5.992v127.032a32.744 32.744 0 0 0 32.808 32.728h50.064a32.752 32.752 0 0 0 32.816-32.688V931.92h430.696v40.8a32.752 32.752 0 0 0 32.808 32.728h50.096a32.768 32.768 0 0 0 32.816-32.704V845.68c0-2.016-0.224-4.016-0.624-5.984 0.392-3.16 0.624-6.256 0.624-9.328l-9.28-105.6c0-20.544-4.504-38.16-12.424-53.592l24.416-4.144a18.36 18.36 0 0 0 18.424-18.312v-15.968a18.448 18.448 0 0 0-18.424-18.368h0.008z m-541.128-18.776l21.848-58.048 0.272-1.376c2.176-11.704 7.024-13.832 14.2-22.848h342.248c7.256 9.304 11.776 11.672 13.744 22.776l22.232 59.552 8.152 32.352c-1.848 23.664-30.384 42.352-54.04 42.352H1046.344c-23.72 0-52.248-18.688-54.08-42.376l8.184-32.384z m15.304 276.088a49.624 49.624 0 1 1 1.44-99.256 49.624 49.624 0 0 1-1.44 99.256z m277.6-36.576a14.784 14.784 0 0 1-14.792 14.736h-139.432a14.792 14.792 0 0 1-14.792-14.704v-41.44c0-8.16 6.648-14.736 14.792-14.736h139.432c8.152 0 14.792 6.576 14.792 14.72v41.424z m106.344 36.576a49.624 49.624 0 0 1-49.712-49.536v-0.024a49.624 49.624 0 0 1 49.704-49.552h0.008a49.632 49.632 0 0 1 49.704 49.552 49.68 49.68 0 0 1-49.704 49.56z" p-id="7356" fill="#07c160"></path><path d="M959.92 724.328l-37.808 22.664 4 24c0 32.176-62.496 42.808-94.672 42.808-32.168 0-65.688-33.064-65.688-65.24V340.832c0-64.336-52.144-116.496-116.496-116.496v-77.664c0-42.896-34.752-77.664-77.648-77.664h-388.336c-42.888 0-77.648 34.768-77.648 77.664v776.616h-77.672v77.672h698.968v-77.672h-77.672V302a38.84 38.84 0 0 1 38.848 38.832v407.72c0 75.072 60.832 135.92 135.888 135.92 75.072 0 143.448-19.744 143.448-94.816l-7.512-65.328zM328 834l44-145-106-6 147-192L386 642h104L328 834z m236.168-422.496H175.84V178.512h388.336v232.992z" p-id="7357" fill="#07c160"></path></svg>