<svg width="47" height="47" viewBox="0 0 47 47" fill="none" xmlns="http://www.w3.org/2000/svg">
<g id="Mask group">
<mask id="mask0_5205_5038" style="mask-type:alpha" maskUnits="userSpaceOnUse" x="0" y="0" width="47" height="47">
<rect id="Rectangle 2195" width="47" height="47" fill="transparent"/>
</mask>
<g mask="url(#mask0_5205_5038)">
<path id="Vector" d="M46.3399 21.2034C46.3399 21.2034 39.2644 14.2382 37.9944 12.9837C37.0876 12.0882 36.4388 11.9609 36.1432 11.9609C36.0242 11.9609 35.9628 11.9811 35.9628 11.9811H14.8781C13.4314 11.9811 13.3588 13.7659 13.355 13.951V13.5694H4.92285V24.05H13.3475V25.0073H22.5559C23.0645 25.0073 23.7671 25.6207 23.7671 25.6207L31.6492 34.8115C31.7898 34.9723 31.9716 35.0912 32.1748 35.1552C32.378 35.2191 32.5948 35.2258 32.8015 35.1743L34.1442 34.843L37.0488 38.5524L42.7827 34.2372L40.2414 31.2319V30.2293C40.6222 30.48 40.9716 30.5744 41.281 30.5744C42.2103 30.5744 42.7815 29.728 42.7815 29.728C42.7815 29.728 44.8143 27.2215 46.3386 25.2151C47.8642 23.2086 46.3399 21.2034 46.3399 21.2034ZM43.4892 24.7188L42.2742 26.2177C42.2742 26.2177 41.7657 27.2203 40.7499 27.2203C39.7341 27.2203 39.2256 26.719 39.2256 26.719L30.8801 17.9979C30.8801 17.9979 30.3716 17.4966 30.3716 16.494C30.3716 15.4914 31.3874 14.9901 31.3874 14.9901H35.4531C35.9616 14.9901 36.9774 15.9927 36.9774 15.9927L43.29 22.7073L43.3802 22.7968C43.9088 23.317 43.9551 24.1445 43.4892 24.7188Z" fill="#003294"/>
<rect id="Rectangle 2470" x="1.92676" y="4.25781" width="3.08306" height="36.226" fill="#25A3D9"/>
</g>
</g>
</svg>
