<?xml version="1.0" standalone="no"?><!DOCTYPE svg PUBLIC "-//W3C//DTD SVG 1.1//EN" "http://www.w3.org/Graphics/SVG/1.1/DTD/svg11.dtd"><svg t="1746530701539" class="icon" viewBox="0 0 1024 1024" version="1.1" xmlns="http://www.w3.org/2000/svg" p-id="33651" xmlns:xlink="http://www.w3.org/1999/xlink" width="200" height="200"><path d="M1023.994 345.211c0-41.411-33.571-74.981-74.981-74.981H196.098c-41.411 0-74.981 33.57-74.981 74.981v50.136h902.877v-50.136zM121.117 485.342V795.1c0 41.411 33.57 74.981 74.981 74.981h752.915c41.41 0 74.981-33.57 74.981-74.981V485.342H121.117zM926 761.251H793v-59h133v59z" p-id="33652" fill="#707070"></path><path d="M116.166 706.649c-36.881 0-66.778-28.297-66.778-63.203V264.24c0-34.905 29.897-63.201 66.778-63.201h670.545c36.88 0 66.779 28.296 66.779 63.201v51.611h49.388V228.9c0-41.411-33.572-74.981-74.982-74.981H74.981C33.57 153.918 0 187.488 0 228.899v449.889C0 720.2 33.57 753.77 74.981 753.77h131.624v-47.121h-90.439z" p-id="33653" fill="#707070"></path></svg>