<?xml version="1.0" standalone="no"?><!DOCTYPE svg PUBLIC "-//W3C//DTD SVG 1.1//EN" "http://www.w3.org/Graphics/SVG/1.1/DTD/svg11.dtd"><svg t="1747227572803" class="icon" viewBox="0 0 1024 1024" version="1.1" xmlns="http://www.w3.org/2000/svg" p-id="11156" xmlns:xlink="http://www.w3.org/1999/xlink" width="200" height="200"><path d="M911.104 657.066667H112.896a34.133333 34.133333 0 0 1 0-68.266667h764.074667V192.341333a34.133333 34.133333 0 0 1 68.266666 0V622.933333a34.133333 34.133333 0 0 1-34.133333 34.133334z" p-id="11157" fill="#ffffff"></path><path d="M321.962667 865.792a34.133333 34.133333 0 0 1-24.149334-9.984l-208.981333-209.066667a34.133333 34.133333 0 0 1 0-48.213333l208.981333-209.066667a34.133333 34.133333 0 1 1 48.298667 48.298667L161.194667 622.933333l184.917333 184.576a34.133333 34.133333 0 0 1-24.149333 58.282667z" p-id="11158" fill="#f0f0f0"></path></svg>
