<?xml version="1.0" standalone="no"?><!DOCTYPE svg PUBLIC "-//W3C//DTD SVG 1.1//EN" "http://www.w3.org/Graphics/SVG/1.1/DTD/svg11.dtd"><svg t="1747883069826" class="icon" viewBox="0 0 1024 1024" version="1.1" xmlns="http://www.w3.org/2000/svg" p-id="10424" xmlns:xlink="http://www.w3.org/1999/xlink" width="200" height="200"><path d="M179.2 256a25.6 25.6 0 0 1 0-51.2h665.6a25.6 25.6 0 1 1 0 51.2v51.2h76.8V153.6H102.4v153.6h76.8V256z m51.2 0v567.142c0 11.47 11.008 21.658 25.6 21.658h512c14.592 0 25.6-10.189 25.6-21.658v-267.52a25.6 25.6 0 1 1 51.2 0v267.52C844.8 863.846 809.984 896 768 896H256c-41.984 0-76.8-32.154-76.8-72.858V358.4h-76.8a51.2 51.2 0 0 1-51.2-51.2V153.6a51.2 51.2 0 0 1 51.2-51.2h819.2a51.2 51.2 0 0 1 51.2 51.2v153.6a51.2 51.2 0 0 1-51.2 51.2h-76.8v72.243a25.6 25.6 0 1 1-51.2 0V256H230.4z m399.514 171.725a25.6 25.6 0 1 1 36.198 36.198l-253.44 253.44a25.6 25.6 0 1 1-36.147-36.25l253.44-253.44zM614.4 742.4a76.8 76.8 0 1 1 0-153.6 76.8 76.8 0 0 1 0 153.6z m0-51.2a25.6 25.6 0 1 0 0-51.2 25.6 25.6 0 0 0 0 51.2zM409.6 537.6a76.8 76.8 0 1 1 0-153.6 76.8 76.8 0 0 1 0 153.6z m0-51.2a25.6 25.6 0 1 0 0-51.2 25.6 25.6 0 0 0 0 51.2z" fill="#333333" p-id="10425"></path></svg>