<svg width="187" height="187" viewBox="0 0 187 187" fill="none" xmlns="http://www.w3.org/2000/svg">
<path id="Union" fill-rule="evenodd" clip-rule="evenodd" d="M134.078 45.514C131.854 43.554 129.287 41.2924 124.685 41.0048L124.61 41H62.7353L62.6597 41.0048C58.0577 41.2924 55.4914 43.554 53.2673 45.514L53.2673 45.5141C52.9059 45.8325 52.5536 46.1431 52.203 46.4359C41.5746 57.055 35 71.7306 35 87.9418C35 120.346 61.2686 146.614 93.6726 146.614C126.077 146.614 152.345 120.346 152.345 87.9418C152.345 71.7313 145.771 57.0562 135.144 46.4372C134.793 46.1442 134.44 45.8335 134.079 45.5148L134.078 45.5144L134.078 45.514ZM118.105 49.8952C122.139 50.0009 126.225 52.4497 128.649 54.3289C136.921 63.0019 142 74.7472 142 87.6787C142 114.369 120.363 136.006 93.6724 136.006C66.9819 136.006 45.3449 114.369 45.3449 87.6787C45.3449 75.5706 49.7977 64.5025 57.1551 56.0226L57.2068 56.0425C58.5038 54.6013 64.1402 50.0403 69.6785 49.8952H118.105ZM72.2455 84.2748C72.2455 88.2381 69.0326 91.4511 65.0692 91.4511C61.1058 91.4511 57.8929 88.2381 57.8929 84.2748C57.8929 80.3114 61.1058 77.0985 65.0692 77.0985C69.0326 77.0985 72.2455 80.3114 72.2455 84.2748ZM78.0705 84.2748C78.0705 91.4552 72.2496 97.2761 65.0692 97.2761C57.8888 97.2761 52.0679 91.4552 52.0679 84.2748C52.0679 77.0943 57.8888 71.2734 65.0692 71.2734C72.2496 71.2734 78.0705 77.0943 78.0705 84.2748ZM93.6722 91.4511C97.6356 91.4511 100.849 88.2381 100.849 84.2748C100.849 80.3114 97.6356 77.0985 93.6722 77.0985C89.7089 77.0985 86.4959 80.3114 86.4959 84.2748C86.4959 88.2381 89.7089 91.4511 93.6722 91.4511ZM93.6722 97.2761C100.853 97.2761 106.674 91.4552 106.674 84.2748C106.674 77.0943 100.853 71.2734 93.6722 71.2734C86.4918 71.2734 80.6709 77.0943 80.6709 84.2748C80.6709 91.4552 86.4918 97.2761 93.6722 97.2761ZM86.1137 113.744C86.1137 117.707 82.9007 120.92 78.9374 120.92C74.974 120.92 71.7611 117.707 71.7611 113.744C71.7611 109.78 74.974 106.567 78.9374 106.567C82.9007 106.567 86.1137 109.78 86.1137 113.744ZM91.9387 113.744C91.9387 120.924 86.1178 126.745 78.9374 126.745C71.7569 126.745 65.936 120.924 65.936 113.744C65.936 106.563 71.7569 100.742 78.9374 100.742C86.1178 100.742 91.9387 106.563 91.9387 113.744ZM122.275 91.4511C126.239 91.4511 129.452 88.2381 129.452 84.2748C129.452 80.3114 126.239 77.0985 122.275 77.0985C118.312 77.0985 115.099 80.3114 115.099 84.2748C115.099 88.2381 118.312 91.4511 122.275 91.4511ZM122.275 97.2761C129.456 97.2761 135.277 91.4552 135.277 84.2748C135.277 77.0943 129.456 71.2734 122.275 71.2734C115.095 71.2734 109.274 77.0943 109.274 84.2748C109.274 91.4552 115.095 97.2761 122.275 97.2761ZM114.717 113.744C114.717 117.707 111.504 120.92 107.54 120.92C103.577 120.92 100.364 117.707 100.364 113.744C100.364 109.78 103.577 106.567 107.54 106.567C111.504 106.567 114.717 109.78 114.717 113.744ZM120.542 113.744C120.542 120.924 114.721 126.745 107.54 126.745C100.36 126.745 94.5391 120.924 94.5391 113.744C94.5391 106.563 100.36 100.742 107.54 100.742C114.721 100.742 120.542 106.563 120.542 113.744ZM78.9375 66.6274C81.1585 66.6274 82.959 64.8269 82.959 62.6059C82.959 60.3849 81.1585 58.5844 78.9375 58.5844C76.7164 58.5844 74.9159 60.3849 74.9159 62.6059C74.9159 64.8269 76.7164 66.6274 78.9375 66.6274ZM78.9375 69.54C82.767 69.54 85.8715 66.4355 85.8715 62.6059C85.8715 58.7764 82.767 55.6719 78.9375 55.6719C75.1079 55.6719 72.0034 58.7764 72.0034 62.6059C72.0034 66.4355 75.1079 69.54 78.9375 69.54ZM111.562 62.6059C111.562 64.8269 109.761 66.6274 107.54 66.6274C105.319 66.6274 103.518 64.8269 103.518 62.6059C103.518 60.3849 105.319 58.5844 107.54 58.5844C109.761 58.5844 111.562 60.3849 111.562 62.6059ZM114.474 62.6059C114.474 66.4355 111.37 69.54 107.54 69.54C103.71 69.54 100.606 66.4355 100.606 62.6059C100.606 58.7764 103.71 55.6719 107.54 55.6719C111.37 55.6719 114.474 58.7764 114.474 62.6059Z" fill="#0A6FB4"/>
</svg>
