<svg width="187" height="187" viewBox="0 0 187 187" fill="none" xmlns="http://www.w3.org/2000/svg">
<path id="Union" fill-rule="evenodd" clip-rule="evenodd" d="M152 93.5C152 125.809 125.809 152 93.5 152C61.1913 152 35 125.809 35 93.5C35 61.1913 61.1913 35 93.5 35C125.809 35 152 61.1913 152 93.5ZM72.084 43.8047C52.8592 52.1012 39.4033 71.2276 39.4033 93.4968C39.4033 123.374 63.6233 147.594 93.5001 147.594C123.377 147.594 147.597 123.374 147.597 93.4968C147.597 71.2276 134.141 52.1012 114.916 43.8047H72.084ZM74.5775 93.4994C74.5775 99.0298 70.0943 103.513 64.5638 103.513C59.0334 103.513 54.5501 99.0298 54.5501 93.4994C54.5501 87.9689 59.0334 83.4856 64.5638 83.4856C70.0943 83.4856 74.5775 87.9689 74.5775 93.4994ZM80.9187 93.4994C80.9187 102.532 73.5964 109.854 64.5638 109.854C55.5313 109.854 48.209 102.532 48.209 93.4994C48.209 84.4668 55.5313 77.1445 64.5638 77.1445C73.5964 77.1445 80.9187 84.4668 80.9187 93.4994ZM119.919 103.513C125.45 103.513 129.933 99.0298 129.933 93.4994C129.933 87.9689 125.45 83.4856 119.919 83.4856C114.389 83.4856 109.906 87.9689 109.906 93.4994C109.906 99.0298 114.389 103.513 119.919 103.513ZM119.919 109.854C128.952 109.854 136.274 102.532 136.274 93.4994C136.274 84.4668 128.952 77.1445 119.919 77.1445C110.887 77.1445 103.564 84.4668 103.564 93.4994C103.564 102.532 110.887 109.854 119.919 109.854ZM100.595 121.178C100.595 125.097 97.4179 128.273 93.4993 128.273C89.5808 128.273 86.4042 125.097 86.4042 121.178C86.4042 117.259 89.5808 114.083 93.4993 114.083C97.4179 114.083 100.595 117.259 100.595 121.178ZM104.822 121.178C104.822 127.431 99.7526 132.501 93.4993 132.501C87.246 132.501 82.1768 127.431 82.1768 121.178C82.1768 114.925 87.246 109.855 93.4993 109.855C99.7526 109.855 104.822 114.925 104.822 121.178ZM113.943 125.357C116.076 125.357 117.805 123.628 117.805 121.495C117.805 119.362 116.076 117.633 113.943 117.633C111.81 117.633 110.081 119.362 110.081 121.495C110.081 123.628 111.81 125.357 113.943 125.357ZM113.943 127.471C117.243 127.471 119.918 124.796 119.918 121.495C119.918 118.195 117.243 115.52 113.943 115.52C110.642 115.52 107.967 118.195 107.967 121.495C107.967 124.796 110.642 127.471 113.943 127.471ZM76.918 121.495C76.918 123.628 75.1889 125.357 73.0559 125.357C70.9229 125.357 69.1938 123.628 69.1938 121.495C69.1938 119.362 70.9229 117.633 73.0559 117.633C75.1889 117.633 76.918 119.362 76.918 121.495ZM79.0317 121.495C79.0317 124.796 76.3562 127.471 73.0559 127.471C69.7555 127.471 67.0801 124.796 67.0801 121.495C67.0801 118.195 69.7555 115.52 73.0559 115.52C76.3562 115.52 79.0317 118.195 79.0317 121.495ZM108.282 64.9668C110.415 64.9668 112.145 63.2377 112.145 61.1047C112.145 58.9717 110.415 57.2426 108.282 57.2426C106.149 57.2426 104.42 58.9717 104.42 61.1047C104.42 63.2377 106.149 64.9668 108.282 64.9668ZM108.282 67.0805C111.583 67.0805 114.258 64.4051 114.258 61.1047C114.258 57.8044 111.583 55.1289 108.282 55.1289C104.982 55.1289 102.307 57.8044 102.307 61.1047C102.307 64.4051 104.982 67.0805 108.282 67.0805ZM81.9512 61.1047C81.9512 63.2377 80.2221 64.9668 78.0891 64.9668C75.9561 64.9668 74.227 63.2377 74.227 61.1047C74.227 58.9717 75.9561 57.2426 78.0891 57.2426C80.2221 57.2426 81.9512 58.9717 81.9512 61.1047ZM84.0649 61.1047C84.0649 64.4051 81.3894 67.0805 78.0891 67.0805C74.7887 67.0805 72.1133 64.4051 72.1133 61.1047C72.1133 57.8044 74.7887 55.1289 78.0891 55.1289C81.3894 55.1289 84.0649 57.8044 84.0649 61.1047ZM93.1858 64.9668C95.3187 64.9668 97.0479 63.2377 97.0479 61.1047C97.0479 58.9717 95.3187 57.2426 93.1858 57.2426C91.0528 57.2426 89.3237 58.9717 89.3237 61.1047C89.3237 63.2377 91.0528 64.9668 93.1858 64.9668ZM93.1858 67.0805C96.4861 67.0805 99.1616 64.4051 99.1616 61.1047C99.1616 57.8044 96.4861 55.1289 93.1858 55.1289C89.8854 55.1289 87.21 57.8044 87.21 61.1047C87.21 64.4051 89.8854 67.0805 93.1858 67.0805ZM97.0479 76.1985C97.0479 78.3314 95.3187 80.0606 93.1858 80.0606C91.0528 80.0606 89.3237 78.3314 89.3237 76.1985C89.3237 74.0655 91.0528 72.3364 93.1858 72.3364C95.3187 72.3364 97.0479 74.0655 97.0479 76.1985ZM99.1616 76.1985C99.1616 79.4988 96.4861 82.1743 93.1858 82.1743C89.8854 82.1743 87.21 79.4988 87.21 76.1985C87.21 72.8981 89.8854 70.2227 93.1858 70.2227C96.4861 70.2227 99.1616 72.8981 99.1616 76.1985Z" fill="#0A6FB4"/>
</svg>
