<svg width="32" height="32" viewBox="0 0 32 32" fill="none" xmlns="http://www.w3.org/2000/svg">
<g id="Frame">
<path id="Vector" d="M15.75 29.25C8.50125 29.25 2.625 23.3737 2.625 16.125C2.625 8.87625 8.50125 3 15.75 3C22.9987 3 28.875 8.87625 28.875 16.125C28.875 23.3737 22.9987 29.25 15.75 29.25ZM14.2403 25.1125C14.5895 25.4794 15.0351 25.6628 15.5768 25.6628C16.101 25.6628 16.5638 25.4884 16.9659 25.1386C17.3328 24.7718 17.5162 24.3177 17.5162 23.7759C17.5162 23.2169 17.3328 22.7714 16.9659 22.4393C16.6161 22.09 16.1534 21.9152 15.5768 21.9152C15.0175 21.9152 14.572 22.09 14.2403 22.4393C13.8558 22.7714 13.6637 23.2169 13.6637 23.7759C13.6637 24.3 13.8557 24.7456 14.2403 25.1125ZM20.1369 7.97283C19.1058 7.047 17.7344 6.58387 16.0224 6.58387C14.1002 6.58387 12.5892 7.14325 11.4885 8.26117C10.3701 9.36186 9.81123 10.8647 9.81123 12.7688H12.5892C12.5892 11.5985 12.8251 10.6984 13.2968 10.0695C13.821 9.33566 14.6768 8.96877 15.8651 8.96877C16.8086 8.96877 17.5424 9.2308 18.0665 9.75496C18.5731 10.2967 18.8265 11.0129 18.8265 11.904C18.8265 12.5682 18.5907 13.2058 18.1189 13.8171L17.6734 14.3151C16.0485 15.7655 15.0526 16.8486 14.6858 17.5647C14.3537 18.2289 14.1878 19.0586 14.1878 20.0545V20.5H16.992V20.0545C16.992 19.3907 17.1316 18.8056 17.4113 18.2986C17.6382 17.8444 17.9965 17.3989 18.4858 16.962C19.7085 15.9137 20.4514 15.2323 20.7135 14.9178C21.3596 14.062 21.6831 12.9961 21.6831 11.7205C21.6832 10.1481 21.1676 8.89916 20.1369 7.97283Z" fill="#333333"/>
</g>
</svg>
