<svg width="50" height="50" viewBox="0 0 50 50" fill="none" xmlns="http://www.w3.org/2000/svg">
<g id="Frame">
<path id="Vector" d="M14.4678 19.8079L23.501 10.7747C23.9404 10.3352 24.5215 10.1155 25.0977 10.1155C25.6787 10.1155 26.2549 10.3352 26.6943 10.7747L35.7617 19.842L45.2393 29.3196C45.332 29.4124 45.4883 29.3831 45.542 29.2659C45.9277 28.3918 46.1328 27.4397 46.1328 26.4583C46.1328 24.5979 45.4102 22.8547 44.0967 21.5413L30.0146 7.45435C27.2998 4.74438 22.8906 4.74438 20.1758 7.45435L6.09863 21.5364C4.78516 22.8499 4.0625 24.593 4.0625 26.4534C4.0625 27.4348 4.26758 28.3918 4.65332 29.261C4.70703 29.3782 4.86328 29.4075 4.95605 29.3147L14.4678 19.8079Z" fill="#003294"/>
<path id="Vector_2" d="M9.84375 27.6428C9.58008 27.9065 9.43359 28.2629 9.43359 28.634V39.8987C9.43359 42.55 11.582 44.6985 14.2334 44.6985H19.2773C19.7852 44.6985 20.2002 44.2883 20.2002 43.7756V32.8821C20.2002 32.3254 20.8887 32.0764 21.3818 32.0764H28.8184C29.3848 32.0764 30 32.384 30 32.8821V43.7756C30 44.2834 30.4102 44.6985 30.9228 44.6985H35.9668C38.6182 44.6985 40.7666 42.5452 40.7666 39.8987V28.634C40.7666 28.2629 40.6201 27.9065 40.3564 27.6428L25.6836 12.9797C25.3564 12.6526 24.834 12.6526 24.5068 12.9797L9.84375 27.6428Z" fill="#003294"/>
</g>
</svg>
