<svg width="43" height="43" viewBox="0 0 43 43" fill="none" xmlns="http://www.w3.org/2000/svg">
<circle cx="21.5" cy="21.5" r="21.5" fill="red"/>
<path d="M23.3439 21.5671L29.3771 15.7463C29.778 15.3384 29.778 14.698 29.3771 14.2901C28.9543 13.9033 28.2905 13.9033 27.8677 14.2901L21.8345 20.113L16.005 14.493C15.5954 14.1168 14.9513 14.1168 14.5417 14.493C14.1539 14.8882 14.1539 15.5075 14.5417 15.9027L20.3733 21.5248L14.3007 27.3837C13.8998 27.7916 13.8998 28.432 14.3007 28.8399C14.7235 29.2267 15.3873 29.2267 15.8101 28.8399L21.8827 22.9811L27.7099 28.599C28.1196 28.9752 28.7637 28.9752 29.1733 28.599C29.5633 28.2037 29.5633 27.5823 29.1733 27.1871L23.3439 21.5671Z" fill="#101826"/>
</svg>
