<svg width="43" height="43" viewBox="0 0 43 43" fill="none" xmlns="http://www.w3.org/2000/svg">
<circle cx="21.5" cy="21.5" r="21.5" fill="url(#paint0_linear_84_19059)"/>
<path fill-rule="evenodd" clip-rule="evenodd" d="M16.57 30.6149C16.8258 30.8707 17.1624 31 17.499 31C17.558 31 17.617 30.9961 17.6756 30.9883C17.9512 30.9516 18.2175 30.8286 18.4307 30.6176C18.4476 30.6007 18.464 30.5834 18.4798 30.5658L32.8019 16.2464C33.3162 15.7321 33.3162 14.9001 32.8019 14.3857C32.2876 13.8714 31.4555 13.8714 30.9412 14.3857L17.4993 27.8252L11.2464 21.57C10.7321 21.0557 9.90005 21.0557 9.38574 21.57C8.87142 22.0843 8.87142 22.9164 9.38574 23.4307L16.57 30.6149Z" fill="white"/>
<defs>
<linearGradient id="paint0_linear_84_19059" x1="43" y1="-7.02766e-06" x2="-2.43909" y2="1.96065" gradientUnits="userSpaceOnUse">
<stop stop-color="#5DA1E2"/>
<stop offset="1" stop-color="#0A6FB4"/>
</linearGradient>
</defs>
</svg>
