<?xml version="1.0" standalone="no"?><!DOCTYPE svg PUBLIC "-//W3C//DTD SVG 1.1//EN" "http://www.w3.org/Graphics/SVG/1.1/DTD/svg11.dtd"><svg t="1749804297712" class="icon" viewBox="0 0 1024 1024" version="1.1" xmlns="http://www.w3.org/2000/svg" p-id="11424" xmlns:xlink="http://www.w3.org/1999/xlink" width="200" height="200"><path d="M628.5312 579.6864h207.9232a92.672 92.672 0 0 1 92.7232 92.672v207.7696c0 24.7296-9.7792 47.7696-27.0848 65.6384a92.8768 92.8768 0 0 1-65.6384 27.0336h-207.9232c-24.7808 0-47.8208-9.7792-65.6384-27.0336a92.7744 92.7744 0 0 1-27.136-65.6384v-207.7696c0-24.7296 9.8304-47.7696 27.136-65.5872 17.8176-17.3056 41.472-27.0848 65.6384-27.0848z m-276.992-92.672H143.5136c-24.7296 0-47.7696-9.728-65.6384-27.0336a92.416 92.416 0 0 1-27.0848-65.024v-208.384c0-24.7296 9.7792-47.7696 27.0848-65.5872a92.8768 92.8768 0 0 1 65.6384-27.0848h207.9232a92.672 92.672 0 0 1 92.7232 92.672v207.7696c0 24.7808-9.728 47.7696-27.0336 65.6384-17.92 17.2544-41.472 27.0336-65.6896 27.0336z m0 485.2224H143.5136c-24.7296 0-47.7696-9.7792-65.6384-27.0848a90.368 90.368 0 0 1-27.0848-65.5872V671.744c0-24.7808 9.7792-47.7696 27.0848-65.6384a92.8768 92.8768 0 0 1 65.6384-27.0336h207.9232a92.672 92.672 0 0 1 92.7232 92.672v207.7696c0 24.7296-9.728 47.7696-27.0336 65.5872-17.92 17.3056-41.472 27.0848-65.6896 27.0848z m593.7664-616.448l-146.8928 146.7904a92.16 92.16 0 0 1-130.7136 0l-147.456-146.7904a92.0576 92.0576 0 0 1 0-130.6624l146.8928-146.7392a92.16 92.16 0 0 1 130.7136 0l146.8928 146.7392c36.864 36.3008 36.864 94.976 0.5632 130.6624z" p-id="11425" fill="#0A6FB4"></path></svg>
