<svg width="33" height="32" viewBox="0 0 33 32" fill="none" xmlns="http://www.w3.org/2000/svg">
<g id="Frame">
<path id="Vector" d="M29.556 14.3822C29.4805 13.4029 29.2984 13.3143 28.3305 13.3914C27.2592 13.4767 26.3536 12.9436 25.9845 12.0103C25.6055 11.0556 25.8795 10.0714 26.7145 9.3874C27.2772 8.92647 27.3461 8.55247 26.8359 8.01281C26.0681 7.20085 25.2675 6.41678 24.4325 5.67536C23.7844 5.10125 23.4826 5.17506 22.9346 5.86563C22.2652 6.70876 21.1939 6.95973 20.2211 6.50536C19.3089 6.07888 18.8807 5.29972 18.9513 4.19415C18.9988 3.43632 18.7757 3.17059 18.0194 3.11318C17.4288 3.06725 16.8382 3.03609 16.2837 3C15.7013 3.06397 15.1582 3.11154 14.6201 3.18372C13.8671 3.28377 13.7047 3.50358 13.7703 4.27453C13.8704 5.44407 13.3831 6.32328 12.4119 6.72516C11.4702 7.11556 10.4957 6.83506 9.75579 5.96241C9.31776 5.44571 8.9355 5.37026 8.45153 5.82791C7.6378 6.59229 6.83883 7.37965 6.09729 8.21621C5.46402 8.92975 5.53457 9.17251 6.26627 9.78271C6.96188 10.3634 7.26374 11.1064 7.07016 12.0053C6.87165 12.919 6.29252 13.5062 5.38692 13.7178C5.05388 13.7949 4.68803 13.7457 4.33858 13.7424C3.86281 13.7375 3.56259 13.954 3.50024 14.4199C3.32798 15.7125 3.32142 17.0067 3.55602 18.2943C3.6479 18.8028 3.92187 18.9997 4.43538 18.9685C4.70607 18.9521 4.98005 18.8881 5.24583 18.9144C6.19408 19.0079 6.93891 19.6377 7.19484 20.5252C7.45077 21.4076 7.14726 22.3082 6.38603 22.92C5.75933 23.4236 5.69042 23.773 6.2351 24.352C6.98977 25.1541 7.77233 25.9349 8.59918 26.6616C9.30299 27.28 9.57041 27.2078 10.1577 26.4582C10.9633 25.4281 12.407 25.2903 13.3946 26.135C14.0574 26.7026 14.2346 27.4194 14.1476 28.2527C14.0837 28.8678 14.3101 29.2221 14.8498 29.2336C16.0622 29.2582 17.2779 29.2631 18.487 29.1909C19.2745 29.1434 19.4303 28.8629 19.3417 28.069C19.2121 26.9175 19.6961 26.0137 20.6624 25.6036C21.6385 25.1902 22.6278 25.4707 23.3513 26.3663C23.7943 26.9142 24.1831 26.9946 24.6851 26.5156C25.5169 25.7233 26.3257 24.9015 27.0886 24.0436C27.6431 23.4203 27.5643 23.084 26.8966 22.5805C26.3388 22.1605 26.0238 21.6028 25.9845 20.909C25.9024 19.4901 27.059 18.4141 28.4962 18.5568C29.2295 18.6289 29.5888 18.4206 29.6052 17.7809C29.6331 16.6491 29.643 15.5107 29.556 14.3822ZM16.5281 21.8472C13.3749 21.8128 10.8451 19.2473 10.8862 16.1258C10.9272 13.0453 13.4701 10.5127 16.5084 10.5258C19.6485 10.5389 22.239 13.1208 22.2062 16.2095C22.175 19.3392 19.6124 21.8817 16.5281 21.8472Z" fill="#333333"/>
</g>
</svg>
