<?xml version="1.0" standalone="no"?><!DOCTYPE svg PUBLIC "-//W3C//DTD SVG 1.1//EN" "http://www.w3.org/Graphics/SVG/1.1/DTD/svg11.dtd"><svg t="1749819129265" class="icon" viewBox="0 0 1024 1024" version="1.1" xmlns="http://www.w3.org/2000/svg" p-id="6438" xmlns:xlink="http://www.w3.org/1999/xlink" width="200" height="200"><path d="M382.434619 510.073377v-0.602069h-40.82032c-62.976482 0.963311-125.952963-6.14111-187.123236-21.192851-48.045155-13.125118-75.49953-30.946378-75.49953-48.285983V364.854186c167.616181 72.368768 357.629351 72.368768 525.365946 0v79.954845h54.186265V150.39699c0-33.715898-33.354657-65.143932-94.043274-88.38382a718.508674 718.508674 0 0 0-446.61524 0c-60.568203 23.360301-93.92286 54.788335-93.922859 88.38382v579.913452c0 33.354657 32.873001 64.662277 92.959548 87.902164 70.923801 24.925682 145.580433 37.207902 220.718721 36.003763h3.130762v-54.186266h-3.130762c-62.253998 0.722484-124.267168-6.502352-184.714958-21.433678-47.322672-13.004704-74.29539-30.464722-74.29539-47.924741v-75.258702c80.797742 38.532455 169.542803 57.076199 259.010348 54.186265h3.130762v-54.186265h-3.130762c-62.253998 0.722484-124.267168-6.502352-184.714958-21.433678-47.322672-13.004704-74.29539-30.464722-74.29539-47.924741v-75.138288c80.797742 38.532455 169.542803 57.076199 259.010348 54.186265h3.130762V561.128881c4.696143-18.302916 16.015052-34.317968 31.668861-44.914394l9.994356-6.14111zM154.731891 102.231421c123.183443-28.176858 251.183443-28.176858 374.366886 0 48.045155 13.125118 75.49953 30.946378 75.49953 48.285983 0 17.339605-27.33396 35.160865-75.49953 48.285983a839.559586 839.559586 0 0 1-374.366886 0c-48.045155-13.004704-75.619944-30.946378-75.619944-48.285983 0.120414-17.219191 27.454374-35.040452 75.619944-48.285983z m-75.49953 118.005644c167.616181 72.368768 357.629351 72.368768 525.365946 0v75.138288c0 17.580433-27.454374 35.160865-75.49953 48.285983-123.183443 28.176858-251.063029 28.176858-374.126058 0-48.045155-13.125118-75.619944-30.946378-75.619944-48.285983v-75.138288z m0 0" fill="#30bf51" p-id="6439"></path><path d="M903.465663 497.068674c-71.766698-24.925682-147.386642-36.967074-223.247413-35.522108-92.477893-3.732832-184.353716 15.774224-267.318909 56.955786-16.978363 8.549389-31.30762 21.554092-41.422389 37.569144l-2.528692 4.696143c-4.094073 7.706491-6.261524 16.135466-6.381938 24.925682v290.07714c0 33.715898 33.354657 65.023518 94.043273 88.383819 145.098777 47.443086 301.516463 47.443086 446.61524 0 60.568203-23.239887 93.92286-54.667921 93.92286-88.383819V585.452493c0.361242-33.715898-32.993415-65.023518-93.682032-88.383819zM417.595484 655.292568c167.616181 72.248354 357.629351 72.248354 525.365946 0v75.138288c0 17.580433-27.454374 35.160865-75.49953 48.406397a839.559586 839.559586 0 0 1-374.366886 0c-48.045155-13.125118-75.49953-30.946378-75.49953-48.285983v-75.258702z m525.365946 219.996237c0 17.580433-27.454374 35.160865-75.49953 48.285983a839.559586 839.559586 0 0 1-374.366886 0c-48.045155-13.125118-75.49953-30.946378-75.49953-48.285983v-75.138288c167.616181 72.248354 357.629351 72.248354 525.365946 0v75.138288z m-75.49953-241.550329a839.559586 839.559586 0 0 1-374.366886 0c-48.045155-13.125118-75.49953-30.946378-75.49953-48.285983 0-17.339605 27.454374-35.160865 75.49953-48.285983 123.183443-28.176858 251.183443-28.176858 374.366886 0 48.045155 13.125118 75.49953 30.946378 75.49953 48.285983 0 17.339605-27.454374 35.160865-75.49953 48.285983z m0 0" fill="#30bf51" p-id="6440"></path></svg>