<?xml version="1.0" standalone="no"?><!DOCTYPE svg PUBLIC "-//W3C//DTD SVG 1.1//EN" "http://www.w3.org/Graphics/SVG/1.1/DTD/svg11.dtd"><svg t="1744624095388" class="icon" viewBox="0 0 1024 1024" version="1.1" xmlns="http://www.w3.org/2000/svg" p-id="6503" xmlns:xlink="http://www.w3.org/1999/xlink" width="200" height="200"><path d="M621.714 36.571L896 310.857v566.857c0 60.594-49.12 109.715-109.714 109.715H237.714C177.121 987.429 128 938.308 128 877.714V146.286C128 85.692 177.12 36.57 237.714 36.57h384zM583.844 128h-346.13c-9.377 0-17.106 7.059-18.162 16.153l-0.123 2.133v731.428c0 9.378 7.059 17.107 16.153 18.163l2.132 0.123h548.572c9.377 0 17.106-7.059 18.162-16.153l0.123-2.133V348.727L583.845 128zM512 640c35.346 0 64 28.654 64 64 0 35.346-28.654 64-64 64-35.346 0-64-28.654-64-64 0-35.346 28.654-64 64-64z m45.714-365.714v292.571h-91.428V274.286h91.428z" fill="#2c2c2c" p-id="6504"></path></svg>