<svg width="240" height="240" viewBox="0 0 240 240" fill="none" xmlns="http://www.w3.org/2000/svg">
<g id="Frame">
<path id="Vector" d="M14.4004 119.998C14.4004 133.866 17.1318 147.598 22.4387 160.41C27.7456 173.222 35.524 184.863 45.3299 194.669C55.1358 204.475 66.777 212.253 79.589 217.56C92.401 222.867 106.133 225.598 120 225.598C133.868 225.598 147.6 222.867 160.412 217.56C173.224 212.253 184.865 204.475 194.671 194.669C204.477 184.863 212.255 173.222 217.562 160.41C222.869 147.598 225.6 133.866 225.6 119.998C225.6 91.9916 214.475 65.1318 194.671 45.328C174.867 25.5241 148.007 14.3984 120 14.3984C91.9935 14.3984 65.1338 25.5241 45.3299 45.328C25.5261 65.1318 14.4004 91.9916 14.4004 119.998Z" fill="#003294"/>
<path id="Vector_2" d="M97.2528 72.8984C97.7657 73.6929 98.1171 74.5807 98.2869 75.511C98.4566 76.4413 98.4415 77.396 98.2422 78.3204C98.043 79.2449 97.6635 80.1211 97.1256 80.8989C96.5877 81.6767 95.9019 82.3409 95.1072 82.8536C82.2768 91.124 74.4 105.188 74.4 120.582C74.4 145.426 94.8 165.601 120 165.601C145.2 165.601 165.6 145.426 165.6 120.577C165.6 105.337 157.877 91.3928 145.258 83.0888C144.468 82.5687 143.788 81.8982 143.257 81.1155C142.727 80.3328 142.355 79.4533 142.165 78.5271C141.974 77.6009 141.967 76.6461 142.146 75.7174C142.324 74.7887 142.683 73.9042 143.203 73.1144C143.723 72.3246 144.394 71.6449 145.176 71.1142C145.959 70.5835 146.839 70.2122 147.765 70.0214C148.691 69.8306 149.646 69.8242 150.575 70.0024C151.503 70.1806 152.388 70.5399 153.178 71.06C169.79 81.9992 180 100.431 180 120.582C180 153.409 153.12 180.001 120 180.001C86.88 180.001 60 153.414 60 120.577C60 100.23 70.416 81.6392 87.3024 70.7528C88.9066 69.7184 90.8559 69.3634 92.7218 69.7657C94.5877 70.168 96.2174 71.2948 97.2528 72.8984ZM120 52.8008C121.91 52.8008 123.741 53.5594 125.091 54.9096C126.441 56.2599 127.2 58.0912 127.2 60.0008V117.601C127.2 119.51 126.441 121.342 125.091 122.692C123.741 124.042 121.91 124.801 120 124.801C118.09 124.801 116.259 124.042 114.909 122.692C113.559 121.342 112.8 119.51 112.8 117.601V60.0008C112.8 58.0912 113.559 56.2599 114.909 54.9096C116.259 53.5594 118.09 52.8008 120 52.8008Z" fill="white"/>
</g>
</svg>
