<?xml version="1.0" standalone="no"?><!DOCTYPE svg PUBLIC "-//W3C//DTD SVG 1.1//EN" "http://www.w3.org/Graphics/SVG/1.1/DTD/svg11.dtd"><svg t="1747886036277" class="icon" viewBox="0 0 1024 1024" version="1.1" xmlns="http://www.w3.org/2000/svg" p-id="29056" xmlns:xlink="http://www.w3.org/1999/xlink" width="200" height="200"><path d="M327.24 750.88a20.52 20.52 0 0 1-13.48-4.76 307.28 307.28 0 1 1 433-36.52 302.8 302.8 0 0 1-36.52 36.52 20 20 0 0 1-28-2.36 19.48 19.48 0 0 1 1.96-27.4l0.44-0.36a267.64 267.64 0 1 0-346.12 0 20 20 0 0 1-12.72 34.88z" p-id="29057" fill="#333333"></path><path d="M397.4 680.32a19.48 19.48 0 0 1-12.68-4.76 204.6 204.6 0 1 1 288.36-24 207.12 207.12 0 0 1-24 24 19.48 19.48 0 0 1-27.44-1.6 1.56 1.56 0 0 1-0.32-0.4 20.2 20.2 0 0 1 1.96-28 165.32 165.32 0 1 0-232.96-19.68 163.32 163.32 0 0 0 19.68 19.68 20 20 0 0 1 2.36 28 18.96 18.96 0 0 1-14.96 6.76z" p-id="29058" fill="#333333"></path><path d="M516.36 618.88A99.52 99.52 0 1 1 616 519.36a99.52 99.52 0 0 1-99.64 99.52z m0-158.6a60 60 0 1 0 60 60v-0.76a60.28 60.28 0 0 0-60-60z" p-id="29059" fill="#333333"></path><path d="M516.36 820a20 20 0 0 1-20-20v-198.16a20 20 0 0 1 39.68 0V800a20 20 0 0 1-19.68 20z" p-id="29060" fill="#333333"></path></svg>
