<svg width="40" height="40" viewBox="0 0 40 40" fill="none" xmlns="http://www.w3.org/2000/svg">
<g id="Frame">
<path id="Union" fill-rule="evenodd" clip-rule="evenodd" d="M36.1615 15.9999C35.89 16.0008 35.6218 15.9426 35.3765 15.8297C35.1312 15.7168 34.9151 15.552 34.7441 15.3474C32.9541 13.235 30.7041 11.5336 28.1559 10.3655C25.6076 9.19741 22.8244 8.5916 20.0062 8.5916C17.188 8.5916 14.4047 9.19741 11.8565 10.3655C9.30827 11.5336 7.0583 13.235 5.26829 15.3474C4.96324 15.7055 4.5249 15.9322 4.04852 15.9785C3.57214 16.0247 3.09621 15.8866 2.72414 15.5943C2.53202 15.4539 2.37052 15.2779 2.24901 15.0765C2.1275 14.8751 2.04839 14.6523 2.01628 14.421C1.98416 14.1897 1.99967 13.9545 2.06191 13.7291C2.12415 13.5036 2.23188 13.2924 2.37886 13.1077C4.50917 10.5741 7.19365 8.53211 10.2377 7.12981C13.2818 5.72751 16.6093 5 19.9789 5C23.3486 5 26.676 5.72751 29.7201 7.12981C32.7642 8.53211 35.4487 10.5741 37.579 13.1077C37.8012 13.3665 37.9424 13.6818 37.9857 14.016C38.0291 14.3503 37.973 14.6897 37.8238 14.9939C37.6747 15.2982 37.4389 15.5546 37.1443 15.7329C36.8497 15.9112 36.5087 16.0038 36.1615 15.9999ZM30.3244 22.712C30.5783 22.8526 30.859 22.9255 31.1435 22.9247C31.5357 22.9404 31.9219 22.8157 32.2435 22.5695C32.4371 22.4184 32.6015 22.2269 32.7273 22.0061C32.853 21.7852 32.9376 21.5393 32.9761 21.2826C33.0147 21.0258 33.0065 20.7632 32.9519 20.5099C32.8973 20.2567 32.7976 20.0177 32.6583 19.8068C31.2737 17.7003 29.451 15.9844 27.3408 14.8008C25.2306 13.6173 22.8933 13 20.5221 13C18.1508 13 15.8135 13.6173 13.7033 14.8008C11.5931 15.9844 9.77043 17.7003 8.38584 19.8068C8.2356 20.0159 8.12553 20.256 8.06224 20.5127C7.99894 20.7695 7.98373 21.0376 8.0175 21.301C8.05128 21.5643 8.13336 21.8175 8.2588 22.0453C8.38425 22.273 8.55047 22.4707 8.74749 22.6264C8.9445 22.7821 9.16825 22.8926 9.40528 22.9513C9.64231 23.01 9.88774 23.0157 10.1268 22.968C10.3659 22.9203 10.5937 22.8202 10.7965 22.6737C10.9994 22.5272 11.1731 22.3374 11.3072 22.1156C12.3588 20.5261 13.7398 19.232 15.3369 18.3397C16.934 17.4473 18.7017 16.982 20.495 16.982C22.2883 16.982 24.056 17.4473 25.6531 18.3397C27.2502 19.232 28.6312 20.5261 29.6828 22.1156C29.8507 22.367 30.0706 22.5714 30.3244 22.712ZM14.0981 27.8285C14.319 27.9274 14.5591 27.9764 14.8013 27.972C15.1275 27.953 15.4425 27.8462 15.7124 27.663C15.9824 27.4797 16.1972 27.2269 16.3339 26.9316C16.6372 26.2342 17.1418 25.6419 17.7838 25.23C18.4257 24.8181 19.1761 24.605 19.94 24.6178C20.7023 24.612 21.4497 24.828 22.0903 25.239C22.7309 25.6501 23.2369 26.2384 23.546 26.9316C23.6419 27.1472 23.7796 27.3418 23.9511 27.5044C24.1226 27.667 24.3246 27.7944 24.5456 27.8794C24.7666 27.9643 25.0023 28.0051 25.2391 27.9995C25.476 27.9938 25.7094 27.9418 25.9261 27.8464C26.1427 27.751 26.3384 27.6141 26.5018 27.4435C26.6653 27.2729 26.7934 27.0719 26.8788 26.852C26.9641 26.6322 27.0052 26.3977 26.9995 26.1621C26.9938 25.9265 26.9415 25.6943 26.8456 25.4788C26.2675 24.1486 25.3107 23.0157 24.0932 22.2199C22.8758 21.4241 21.4508 21 19.994 21C18.5373 21 17.1123 21.4241 15.8949 22.2199C14.6774 23.0157 13.7206 24.1486 13.1425 25.4788C12.9563 25.9164 12.9524 26.4097 13.1316 26.8503C13.3108 27.2909 13.6584 27.6427 14.0981 27.8285ZM18.5858 33.4142C18.2107 33.0391 18 32.5304 18 32C18 31.4696 18.2107 30.9609 18.5858 30.5858C18.9609 30.2107 19.4696 30 20 30C20.5304 30 21.0391 30.2107 21.4142 30.5858C21.7893 30.9609 22 31.4696 22 32C22 32.5304 21.7893 33.0391 21.4142 33.4142C21.0391 33.7893 20.5304 34 20 34C19.4696 34 18.9609 33.7893 18.5858 33.4142Z" fill="black"/>
</g>
</svg>
